<?xml version="1.0" encoding="UTF-8"?>
<!DOCTYPE svg PUBLIC "-//W3C//DTD SVG 1.1//EN" "http://www.w3.org/Graphics/SVG/1.1/DTD/svg11.dtd">
<!-- Creator: CorelDRAW 2021 (64-Bit) -->
<svg xmlns="http://www.w3.org/2000/svg" xml:space="preserve" width="31.75mm" height="31.75mm" version="1.1" style="shape-rendering:geometricPrecision; text-rendering:geometricPrecision; image-rendering:optimizeQuality; fill-rule:evenodd; clip-rule:evenodd"
viewBox="0 0 382.85 382.85"
 xmlns:xlink="http://www.w3.org/1999/xlink"
 xmlns:xodm="http://www.corel.com/coreldraw/odm/2003">
 <g id="Layer_x0020_1">
  <metadata id="CorelCorpID_0Corel-Layer"/>
  <path d="M11.89 116.52c3,12.87 7.32,6.52 0.34,15.4 -1.84,2.34 -1.92,2.81 -4.3,4.41 0,-3.85 -0.16,-7.07 0.42,-10.68 0.63,-3.92 1.71,-6.14 1.96,-9.14l1.59 0zm-4.76 45.18l10.62 17.12c4.02,6.01 7.72,11.21 11.57,16.96 -1.83,3.46 -5.26,12.32 -7.93,14.27 -11.29,-21.34 -14.27,-24.28 -14.27,-48.35zm2.38 103.84c0,-13.36 2.77,-20.85 7.36,-31.48 1.19,-2.75 3.13,-7.09 3.74,-9.73 2.61,1.91 3.62,5.94 5.39,8.88 7.35,12.16 5.05,7.31 1.91,17.45 -2.65,8.58 -1.53,17.94 0.91,28.24 -2.72,3.41 -8.84,9.44 -11.53,12.36 -3.05,-6.1 -7.78,-16.97 -7.78,-25.71zm8.72 -159.32c3.66,-0.08 2.66,-0.79 5.55,-0.79 9.69,0 17.19,8.6 20.61,15.06 -21.26,0 -11.18,1.29 -18.23,3.17 -1.32,-5.68 -6.6,-11.76 -7.93,-17.44zm17.44 145.06c0.91,3.91 5.25,16.39 -1.58,21.4 -0.39,-4.72 -1.69,-10.57 -0.22,-16.87 0.35,-1.51 0.23,-1.2 0.72,-2.45l0.79 -1.59c0.06,-0.11 0.19,-0.34 0.3,-0.5zm-16.65 -116.52l1.58 0c0.62,2.66 1.69,4.33 3.02,6.5l15.37 24.26c4.25,6.43 2.93,3.8 -0.46,13.33 -0.94,2.63 -1.83,5.26 -2.87,7.43 -3.33,-2.23 -24.22,-33.98 -24.33,-38.15 -0.13,-4.69 6.75,-9.87 7.69,-13.38zm7.13 80.85l7.93 -12.68 8.04 10.98c0.51,0.7 0.79,1.13 1.32,1.85l1.74 2.22c-1.81,2.7 -7.11,9.64 -7.93,12.68l-11.1 -15.06zm3.17 -86.4c15.65,-1.3 19.02,-3.52 19.02,11.1 0,5.57 -1.21,8.14 -1.59,12.68 -2.49,-1.67 -15.57,-20.24 -17.44,-23.78zm27.74 122.86l0 5.55c0,7.28 -4.69,21.4 -15.85,21.4 -7.88,0 8.94,-4.09 2.56,-30.3 -2.97,-12.19 -5.19,-6.52 0.47,-15.82 1.2,-1.97 3.55,-5.7 4.11,-7.78 2.55,1.87 4.44,8.14 5.66,11.78 1.37,4.1 3.06,9.54 3.06,15.17zm-10.3 -73.72c2.93,1.96 11.1,14.94 11.1,15.06 0,3.17 -4.83,11.21 -6.34,13.48l-9.57 -12.72c-1.7,-3.5 3.81,-11.51 4.81,-15.82zm8.72 -42.8c4.04,2.96 8.15,13.43 9.38,18.36 2.39,9.57 1.41,14.76 -0.66,23.65 -2.45,-1.64 -11.68,-13.79 -11.65,-16.52 0.01,-0.7 1.02,-4.46 1.29,-5.72l1.64 -19.77zm7.93 65c0.34,4.1 3.27,7.35 5.03,10.82 7.87,15.5 11.61,25.82 11.61,43.87 0,17.63 -6.32,36.57 -20.13,44.87 -5.3,3.18 -9.78,4.33 -16.33,5.86 -16.64,2.69 -20.75,-6.07 -22.77,-9.28 5.06,-4.92 9.85,-10.5 12.63,-12.61 3.98,1.7 13.96,8.5 25.84,-9.96 11.32,-17.59 6.54,-39.85 -2.3,-56.93 -1.44,-2.78 -1.91,-2.79 -0.17,-5.7 1.79,-3 4.3,-9.28 6.58,-10.94zm68.17 146.64l-3.9 1.65c-6.45,1.72 -12.52,0.35 -17.5,-0.06 2.04,-2.79 5.81,-3.4 9.74,-3.79 4.16,-0.42 8.31,1.43 11.67,2.21zm8.72 4.76c1.16,0 16.99,8.61 18.23,10.31 -5.44,1.27 -12.5,5.2 -18.12,7.24 -14.72,5.33 -35.75,5.57 -49.31,-3.66 2.85,-3.23 9.3,-9.36 12.74,-12.3 15.98,8.45 35.99,-1.59 36.46,-1.59zm-15.85 -14.27c-7.04,0 -10.23,0.09 -16.13,3.74 -4.02,2.49 -4.47,4.58 -4.47,-2.15 0,-7.09 13.44,-13.47 21.4,-13.47 8.94,0 11.23,-0.09 20.13,2.86 3.89,1.29 10.47,3.26 12.37,5.86 -5.69,1.52 -11.34,7.8 -14.65,7.4 -3.12,-0.38 -9.53,-4.23 -18.64,-4.23zm27.74 7.93c3.04,-0.81 9.98,-6.12 12.68,-7.93l7.28 5.4c2.38,1.61 6.3,3.68 7.78,5.7l-12.68 7.93c-1.21,-1.05 -0.32,-0.32 -1.85,-1.32l-13.21 -9.78zm-19.02 -28.54c-9.99,0 -17.66,2.24 -23.94,6.18 -19.09,11.95 -12.63,21.7 -10.2,25.74 -3.97,3.24 -9.12,9.19 -13.62,12.89 -1.41,-1.13 -5.39,-4.6 -7.31,-9.04 -1.75,-4.06 -1.54,-8.93 -1.21,-13.57 0.69,-9.73 5.87,-20.04 16.47,-27.12 13.35,-8.92 25.96,-9.34 42.98,-9.34 17.12,0 41.67,16.29 45.97,16.65 -1.89,2.58 -7.38,4.33 -10.46,6.25 -4.47,2.79 -3.71,0.95 -10.96,-2.28 -7.96,-3.55 -16.19,-6.35 -27.73,-6.35zm42.8 14.27c13.99,-9.37 13.2,-6.52 21.08,-1.27 2.98,1.98 5.6,3.26 7.45,6.02 -2.42,0.56 -5.91,2.18 -8.05,3.05 -2.81,1.15 -4.95,3.13 -7.77,1.76l-12.72 -9.57zm-3.17 29.33l14.26 -7.15 25.21 16.82c2.94,1.77 6.97,2.78 8.88,5.39 -24.84,0 -25.27,-2.64 -43.6,-11.89 -2.38,-1.2 -3.23,-1.08 -4.76,-3.17zm32.5 -42.01c11.24,-2.62 22.28,-3.16 33.56,2.91 2.41,1.3 7.15,4.03 8.45,5.81 -5.6,0 -8.98,0.21 -13.54,0.72 -2.9,0.33 -3.72,0.37 -6.23,0.91 -9.02,1.97 -5.49,2.26 -14.47,-3.86 -2.82,-1.92 -6,-3.86 -7.77,-6.5zm-8.72 28.54l14.27 -5.64c3.01,-0.95 7.77,2.87 12.37,5.95 4.26,2.85 7.59,5.12 11.87,7.94 2.27,1.5 3.8,2.13 6.03,3.48 2.32,1.41 4.12,2.65 6.98,3.32l0 1.58c-3.44,0.92 -8.29,7.3 -12.79,7.68 -5.22,0.43 -26.58,-15.39 -32.54,-19.42 -2.39,-1.62 -4.66,-2.62 -6.19,-4.91zm33.29 -11.1c2.47,-0.2 19.49,-3.55 23.01,-0.02 3,3 1,14.7 0.77,17.46 -3.54,-1.87 -22.11,-14.95 -23.78,-17.44zm25.37 30.91c2.82,0 7.7,3.17 11.1,3.96l0 1.58c-6.86,0.57 -3.95,2.38 -19.82,2.38 0.75,-1.11 8.1,-7.93 8.72,-7.93zm3.96 -10.31c1.83,-6.86 3.17,3.2 3.17,-18.23 6.85,3.63 16.1,13.26 15.06,19.82l-0.93 6.32c-5.55,-1.3 -11.62,-6.58 -17.3,-7.9zm-184.23 -34.95c-11.99,25.22 4.93,43.99 -25.4,13.61 -33.48,-33.54 -12.69,-15.77 11.8,-28.14 5.79,-2.92 17.12,7.14 13.6,14.54zm-5.66 -134.67c-0.03,-0.9 2.43,-8.4 3,-10.92 4.45,-19.66 -1.77,-37.97 -16.63,-50.33 -2.31,-1.92 -1.95,-1.94 -3.17,-4.76 -5.25,-12.09 -16.24,-25.74 -31.12,-22.84 -3.59,0.7 -3.04,1.37 -6.34,1.64 -0.76,-9.13 -5.55,-15.31 -5.55,-37.25 0,-16.41 5.86,-27.36 12.51,-37.43 3.26,-4.93 8.08,-9.15 13.17,-12.2 15.85,-9.49 31.92,-6.94 42.82,8.86 5.22,7.56 9.98,16.66 10.75,28.11 1.02,15.12 -2.21,32.29 -13.24,42.99 -18.29,17.75 -35.89,-6.22 -35.89,-24.79l0 -7.93c0,-9.69 5.31,-23.78 14.27,-23.78 10.72,0 15.06,9.7 15.06,21.4 0,6.37 -2.68,13.56 -7.13,17.44 -6.72,-3.56 -7.13,-10.81 -7.13,-18.23 -2.41,0.05 -2.89,0.36 -4.76,0.79 0,6.83 -0.39,24.57 10.31,24.57 21.53,0 22.01,-53.9 -3.96,-53.9 -8.22,0 -14.06,5.08 -18.01,9.73 -12.1,14.25 -9.96,40.66 0.33,54.72 2.36,3.23 5.05,6.04 7.97,8.67 4.32,3.89 10.41,4.56 16.85,4.56 20.3,0 33.29,-25.58 33.29,-46.77 0,-16.74 -3.99,-29.82 -11.72,-41.39 -4.8,-7.19 -18.03,-18.06 -29.5,-18.06 -11.19,0 -17.04,2.44 -26.18,7.11 -16.92,8.65 -26.93,36.82 -26.93,57.89 0,9.33 0.04,20.13 2.22,28.7 0.78,3.07 3.52,11.53 2.82,13.54 -0.58,1.66 -1.73,2.58 -2.8,5.17 -7.13,17.31 -1.65,28.01 -2.3,35.7 -0.88,10.46 -2.32,4.3 -2.32,26.27 0,11.84 4.9,23.04 10.33,32.48 7.11,12.36 7.06,5.94 1.1,20.17 -7.94,18.95 -12.41,42.63 -4.78,60.96 1.54,3.7 4.51,8.44 8.46,13.79 1.73,2.34 4.6,5.51 8.23,7.11 -3.34,5.83 18.25,26.65 22.03,30.41 4.95,4.94 20.62,21.3 28.02,20.45 1.29,4.11 5.28,6.47 6.92,7.67 3.61,2.66 7.15,4.99 10.47,6.76 15.31,8.19 35.51,6.95 53,1.83 5.53,-1.62 19.38,-9.01 23.49,-9.01 1.7,0 6.88,4.46 8.74,5.53 2.76,1.59 6.69,3.49 9.59,4.68 12.73,5.21 21.53,5.64 34.93,5.65l0.64 0c5.77,0 8.7,-1.64 12.9,-2.23 5.02,-0.69 22.47,4.8 38.05,-3.11 1.95,-0.99 1.6,-1.19 2.99,-1.83 2.31,-1.06 22.18,4.79 28.49,4.79 22.67,0 40.42,-0.75 58.04,-12.51 10.63,-7.09 21.23,-21.49 21.23,-35.05l0 -5.55c0,-22.66 -29.7,-40.53 -53.9,-40.53l-5.55 -0.68c-21.19,0 -46.77,12.99 -46.77,33.29 0,13.01 3.11,17.41 13.23,24.82 10.51,7.69 20.84,8.48 34.33,8.48 12.86,0 30.12,-12.56 30.12,-25.37 0,-27.22 -53.9,-26.11 -53.9,-4.76 0,3.94 4.81,7.92 8.41,9.03 4.78,1.48 10.18,1.27 16.16,1.27 0.44,-1.87 0.74,-2.34 0.79,-4.76 -7.42,0 -14.67,-0.41 -18.23,-7.13 9.22,-10.61 38.84,-9.12 38.84,5.55l0 2.38c0,8.95 -14.09,14.27 -23.78,14.27l-9.51 0c-11.89,0 -29.33,-10.15 -29.33,-21.4 0,-16.57 17.33,-23.67 30.45,-26.62 30.57,-6.88 61.5,14.23 61.5,32.17 0,8.12 -2.59,14.61 -5.57,19.8 -1.49,2.59 -3.45,4.85 -5.41,7.28 -9.4,11.69 -28.5,18.9 -46.09,18.9 -6.83,0 -12.71,-0.73 -18.81,-1.8 -5.11,-0.9 -11.49,-3.3 -16.86,-3.75 0.64,-7.66 5.68,-12.44 -2.69,-23.47 -4.45,-5.87 -11.09,-10.87 -18.05,-13.65 -5.27,-2.11 -7.94,-8.19 -17.3,-14.41 -9.53,-6.34 -25.21,-8.43 -37.6,-5.87 -8.31,1.72 -10.13,3.16 -12.5,2.7 -12.42,-5.97 -21.96,-11.54 -31.07,-17.01 -14.47,-8.69 -28.65,-16.36 -44.43,-32.1 -14.67,-14.63 -23.68,-29.86 -33.06,-45.05 -5.99,-9.69 -11.79,-19.7 -16.97,-31.86zm71.52 109.31c-22.07,-4.17 -11.7,6.17 -31.47,-13.6 -1.74,-1.74 -0.41,-4.23 2.6,-6.36 3.79,-2.68 27.15,4.01 28.87,19.95zm0.26 -8.61c11.37,6.84 16.21,11.74 21.16,15.34 -1.41,-0.41 -3.36,-1.24 -9.24,-3.23 -7.08,-2.4 -10.59,-0.95 -11.37,-7.48l-0.55 -4.62zm-58.79 -59.99c-0.85,-2.73 -1.78,-5.42 -2.75,-8.05 4.06,5.77 10.88,14.12 17.82,26.41 -1.83,-0.18 -3.65,-0.37 -5.48,-0.55 -8.2,-0.83 -6.65,-8.39 -9.59,-17.8zm24.81 43.96c-2,2.71 -4.4,4.37 -6.01,2.77 -15.87,-15.87 -11.77,-8.06 -14.26,-27.92 16.12,1.39 24.12,19.94 20.27,25.15zm-33.43 35.39c-1.8,-2.34 -3,-5.02 -2.26,-6.45 2.47,-4.74 6.3,-10.43 9.33,-16.8 2.85,-6.01 4.94,-12.68 5.99,-18.18 14.1,17.38 -11.96,42.88 -13.07,41.44zm44.29 -10.57c-6.08,0.53 -12.31,2.64 -18.04,5.46 -5.17,2.55 -13.78,9.62 -16.93,10.74 -1.88,0.67 -4.01,-0.96 -6.08,-2.71 -2.15,-1.82 24.21,-26.91 41.05,-13.49z"/>
 </g>
</svg>
