<?xml version="1.0" encoding="UTF-8"?>
<!DOCTYPE svg PUBLIC "-//W3C//DTD SVG 1.1//EN" "http://www.w3.org/Graphics/SVG/1.1/DTD/svg11.dtd">
<!-- Creator: CorelDRAW 2021 (64-Bit) -->
<svg xmlns="http://www.w3.org/2000/svg" xml:space="preserve" width="31.75mm" height="31.75mm" version="1.1" style="shape-rendering:geometricPrecision; text-rendering:geometricPrecision; image-rendering:optimizeQuality; fill-rule:evenodd; clip-rule:evenodd"
viewBox="0 0 513.94 513.94"
 xmlns:xlink="http://www.w3.org/1999/xlink"
 xmlns:xodm="http://www.corel.com/coreldraw/odm/2003">
 <g id="Layer_x0020_1">
  <metadata id="CorelCorpID_0Corel-Layer"/>
  <path d="M497.98 357.52c-4.02,-17.27 -9.83,-8.76 -0.46,-20.68 2.47,-3.14 2.58,-3.78 5.78,-5.92 0,5.17 0.21,9.5 -0.56,14.33 -0.84,5.26 -2.29,8.24 -2.63,12.27l-2.13 0zm6.39 -60.65l-14.26 -22.98c-5.39,-8.07 -10.36,-15.05 -15.53,-22.77 2.46,-4.64 7.06,-16.53 10.64,-19.15 15.16,28.65 19.15,32.59 19.15,64.91zm-3.19 -139.39c0,17.94 -3.71,27.99 -9.88,42.26 -1.6,3.69 -4.2,9.52 -5.02,13.07 -3.51,-2.57 -4.85,-7.97 -7.24,-11.92 -9.87,-16.33 -6.78,-9.81 -2.57,-23.42 3.56,-11.52 2.06,-24.08 -1.22,-37.91 3.65,-4.58 11.86,-12.68 15.48,-16.6 4.1,8.18 10.44,22.78 10.44,34.51zm-11.7 213.88c-4.91,0.11 -3.57,1.06 -7.45,1.06 -13,0 -23.08,-11.54 -27.67,-20.22 28.54,0 15,-1.73 24.47,-4.26 1.78,7.63 8.86,15.78 10.64,23.41zm-23.41 -194.72c-1.22,-5.24 -7.05,-22 2.13,-28.73 0.53,6.34 2.27,14.19 0.3,22.64 -0.48,2.03 -0.31,1.61 -0.97,3.28l-1.06 2.14c-0.07,0.15 -0.25,0.45 -0.4,0.67zm22.34 156.42l-2.13 0c-0.83,-3.57 -2.27,-5.81 -4.05,-8.72l-20.64 -32.57c-5.71,-8.63 -3.93,-5.1 0.61,-17.9 1.26,-3.54 2.46,-7.06 3.86,-9.97 4.47,2.99 32.52,45.62 32.67,51.21 0.17,6.3 -9.07,13.26 -10.32,17.95zm-9.58 -108.53l-10.64 17.02 -10.79 -14.74c-0.69,-0.94 -1.06,-1.51 -1.77,-2.49l-2.33 -2.98c2.43,-3.62 9.55,-12.94 10.64,-17.03l14.9 20.22zm-4.26 115.98c-21.01,1.75 -25.54,4.72 -25.54,-14.9 0,-7.48 1.62,-10.92 2.13,-17.03 3.34,2.24 20.9,27.18 23.41,31.92zm-37.24 -164.93l0 -7.45c0,-9.77 6.3,-28.73 21.28,-28.73 10.58,0 -11.99,5.49 -3.43,40.67 3.98,16.36 6.97,8.75 -0.63,21.24 -1.61,2.64 -4.77,7.66 -5.51,10.45 -3.43,-2.51 -5.97,-10.93 -7.6,-15.81 -1.84,-5.5 -4.11,-12.81 -4.11,-20.37zm13.83 98.96c-3.93,-2.63 -14.9,-20.05 -14.9,-20.22 0,-4.26 6.48,-15.05 8.51,-18.09l12.84 17.07c2.28,4.69 -5.11,15.45 -6.46,21.23zm-11.7 57.46c-5.42,-3.97 -10.93,-18.03 -12.59,-24.65 -3.21,-12.84 -1.89,-19.81 0.88,-31.74 3.29,2.2 15.67,18.51 15.64,22.17 -0.01,0.94 -1.37,5.99 -1.74,7.68l-2.2 26.54zm-10.64 -87.25c-0.46,-5.5 -4.39,-9.87 -6.75,-14.52 -10.56,-20.8 -15.59,-34.66 -15.59,-58.9 0,-23.66 8.48,-49.1 27.02,-60.23 7.11,-4.27 13.13,-5.82 21.92,-7.87 22.33,-3.61 27.86,8.15 30.56,12.45 -6.8,6.6 -13.23,14.1 -16.96,16.93 -5.34,-2.28 -18.75,-11.41 -34.68,13.37 -15.19,23.62 -8.78,53.49 3.09,76.42 1.93,3.73 2.56,3.75 0.23,7.65 -2.4,4.02 -5.78,12.45 -8.83,14.69zm-91.51 -196.85l5.24 -2.21c8.66,-2.31 16.81,-0.47 23.49,0.08 -2.74,3.74 -7.81,4.56 -13.07,5.09 -5.58,0.56 -11.16,-1.92 -15.66,-2.97zm-11.7 -6.38c-1.56,0 -22.8,-11.55 -24.47,-13.83 7.3,-1.7 16.77,-6.98 24.33,-9.72 19.76,-7.16 48,-7.48 66.19,4.92 -3.83,4.33 -12.48,12.56 -17.1,16.51 -21.45,-11.35 -48.31,2.13 -48.95,2.13zm21.28 19.15c9.45,0 13.74,-0.12 21.66,-5.02 5.4,-3.34 6.01,-6.15 6.01,2.89 0,9.52 -18.04,18.09 -28.73,18.09 -12,0 -15.07,0.12 -27.02,-3.84 -5.23,-1.73 -14.05,-4.38 -16.61,-7.87 7.64,-2.04 15.23,-10.47 19.66,-9.93 4.19,0.51 12.79,5.68 25.03,5.68zm-37.24 -10.64c-4.08,1.09 -13.4,8.21 -17.03,10.64l-9.78 -7.25c-3.19,-2.17 -8.46,-4.94 -10.44,-7.65l17.02 -10.64c1.62,1.41 0.43,0.43 2.49,1.77l17.73 13.13zm25.54 38.31c13.41,0 23.71,-3.01 32.14,-8.29 25.62,-16.04 16.96,-29.13 13.69,-34.55 5.33,-4.36 12.24,-12.34 18.28,-17.3 1.89,1.51 7.23,6.17 9.81,12.14 2.35,5.44 2.06,11.98 1.62,18.21 -0.92,13.06 -7.88,26.9 -22.11,36.41 -17.92,11.97 -34.85,12.54 -57.69,12.54 -22.98,0 -55.93,-21.86 -61.71,-22.34 2.53,-3.46 9.91,-5.81 14.04,-8.39 5.99,-3.75 4.99,-1.27 14.71,3.06 10.69,4.77 21.73,8.53 37.23,8.53zm-57.46 -19.15c-18.78,12.57 -17.72,8.75 -28.3,1.7 -4,-2.66 -7.52,-4.37 -10,-8.09 3.25,-0.76 7.94,-2.92 10.8,-4.1 3.77,-1.54 6.65,-4.2 10.43,-2.36l17.08 12.84zm4.26 -39.37l-19.15 9.59 -33.84 -22.57c-3.94,-2.38 -9.35,-3.73 -11.92,-7.24 33.34,0 33.92,3.54 58.52,15.96 3.19,1.61 4.33,1.46 6.38,4.26zm-43.63 56.4c-15.09,3.52 -29.91,4.24 -45.05,-3.9 -3.24,-1.74 -9.6,-5.41 -11.35,-7.8 7.52,0 12.06,-0.28 18.18,-0.97 3.89,-0.44 5,-0.49 8.36,-1.23 12.1,-2.64 7.37,-3.04 19.42,5.18 3.78,2.58 8.06,5.18 10.43,8.72zm11.7 -38.31l-19.15 7.57c-4.04,1.28 -10.44,-3.86 -16.61,-7.99 -5.71,-3.83 -10.19,-6.88 -15.94,-10.66 -3.05,-2.01 -5.1,-2.86 -8.09,-4.67 -3.12,-1.89 -5.53,-3.56 -9.37,-4.46l0 -2.13c4.61,-1.23 11.12,-9.8 17.17,-10.3 7.01,-0.58 35.68,20.65 43.68,26.06 3.21,2.17 6.26,3.52 8.31,6.58zm-44.69 14.9c-3.32,0.28 -26.16,4.76 -30.89,0.03 -4.02,-4.02 -1.34,-19.73 -1.03,-23.44 4.75,2.51 29.68,20.07 31.92,23.41zm-34.05 -41.5c-3.78,0 -10.34,-4.26 -14.9,-5.32l0 -2.13c9.21,-0.77 5.3,-3.19 26.6,-3.19 -1,1.5 -10.88,10.64 -11.7,10.64zm-5.32 13.83c-2.46,9.2 -4.26,-4.3 -4.26,24.47 -9.2,-4.87 -21.61,-17.8 -20.22,-26.6l1.24 -8.48c7.44,1.75 15.6,8.83 23.23,10.61zm247.31 46.92c16.1,-33.85 -6.62,-59.05 34.09,-18.27 44.95,45.02 17.04,21.16 -15.84,37.78 -7.77,3.93 -22.98,-9.58 -18.25,-19.51zm7.59 180.78c0.04,1.21 -3.26,11.28 -4.03,14.66 -5.98,26.39 2.37,50.98 22.32,67.56 3.1,2.58 2.61,2.6 4.26,6.38 7.04,16.23 21.81,34.56 41.78,30.66 4.82,-0.94 4.08,-1.84 8.51,-2.21 1.02,12.26 7.45,20.55 7.45,50.01 0,22.03 -7.86,36.73 -16.8,50.24 -4.38,6.62 -10.84,12.28 -17.68,16.37 -21.27,12.74 -42.85,9.32 -57.49,-11.89 -7,-10.15 -13.4,-22.37 -14.43,-37.74 -1.36,-20.3 2.96,-43.34 17.78,-57.71 24.56,-23.82 48.18,8.35 48.18,33.28l0 10.64c0,13.01 -7.13,31.92 -19.15,31.92 -14.39,0 -20.22,-13.02 -20.22,-28.73 0,-8.55 3.59,-18.21 9.58,-23.41 9.03,4.78 9.58,14.51 9.58,24.47 3.24,-0.07 3.88,-0.48 6.38,-1.07 0,-9.17 0.52,-32.98 -13.83,-32.98 -28.9,0 -29.54,72.36 5.32,72.36 11.04,0 18.87,-6.81 24.18,-13.06 16.24,-19.13 13.37,-54.58 -0.44,-73.45 -3.17,-4.33 -6.77,-8.11 -10.7,-11.65 -5.8,-5.22 -13.97,-6.12 -22.61,-6.12 -27.25,0 -44.69,34.34 -44.69,62.78 0,22.47 5.36,40.03 15.73,55.56 6.44,9.65 24.2,24.24 39.6,24.24 15.02,0 22.88,-3.27 35.15,-9.55 22.71,-11.62 36.15,-49.42 36.15,-77.71 0,-12.53 -0.05,-27.02 -2.98,-38.52 -1.05,-4.12 -4.72,-15.48 -3.78,-18.18 0.78,-2.22 2.32,-3.46 3.76,-6.95 9.58,-23.23 2.21,-37.59 3.08,-47.92 1.18,-14.04 3.11,-5.78 3.11,-35.27 0,-15.9 -6.58,-30.93 -13.86,-43.6 -9.54,-16.6 -9.48,-7.97 -1.47,-27.07 10.65,-25.44 16.66,-57.22 6.42,-81.83 -2.07,-4.97 -6.05,-11.33 -11.36,-18.51 -2.33,-3.15 -6.18,-7.4 -11.04,-9.54 4.49,-7.83 -24.5,-35.77 -29.57,-40.83 -6.64,-6.63 -27.68,-28.59 -37.61,-27.45 -1.74,-5.52 -7.08,-8.68 -9.28,-10.3 -4.85,-3.57 -9.6,-6.69 -14.05,-9.07 -20.56,-11 -47.66,-9.33 -71.14,-2.46 -7.43,2.18 -26.01,12.09 -31.53,12.09 -2.28,0 -9.24,-5.98 -11.74,-7.42 -3.71,-2.14 -8.99,-4.69 -12.87,-6.28 -17.09,-6.99 -28.9,-7.57 -46.89,-7.58l-0.86 0c-7.74,0 -11.68,2.21 -17.31,2.99 -6.73,0.93 -30.16,-6.45 -51.08,4.17 -2.61,1.33 -2.15,1.6 -4.02,2.46 -3.1,1.43 -29.78,-6.43 -38.25,-6.43 -30.44,0 -54.26,1.01 -77.91,16.79 -14.26,9.52 -28.5,28.85 -28.5,47.05l0 7.45c0,30.42 39.87,54.41 72.35,54.41l7.45 0.92c28.44,0 62.78,-17.44 62.78,-44.69 0,-17.46 -4.18,-23.37 -17.76,-33.31 -14.11,-10.33 -27.98,-11.38 -46.08,-11.38 -17.27,0 -40.43,16.87 -40.43,34.05 0,36.54 72.36,35.05 72.36,6.38 0,-5.29 -6.45,-10.63 -11.29,-12.12 -6.41,-1.99 -13.66,-1.71 -21.7,-1.71 -0.58,2.51 -0.99,3.14 -1.07,6.38 9.97,0 19.7,0.55 24.47,9.58 -12.38,14.24 -52.14,12.25 -52.14,-7.45l0 -3.19c0,-12.02 18.91,-19.15 31.92,-19.15l12.77 0c15.96,0 39.37,13.62 39.37,28.73 0,22.25 -23.26,31.77 -40.88,35.74 -41.03,9.23 -82.55,-19.1 -82.55,-43.18 0,-10.9 3.48,-19.61 7.48,-26.57 2,-3.48 4.64,-6.5 7.26,-9.77 12.61,-15.69 38.26,-25.38 61.88,-25.38 9.17,0 17.06,0.98 25.25,2.42 6.86,1.2 15.43,4.43 22.63,5.03 -0.86,10.28 -7.62,16.7 3.61,31.5 5.97,7.88 14.88,14.6 24.23,18.33 7.08,2.83 10.66,11 23.22,19.35 12.8,8.51 33.85,11.32 50.47,7.88 11.16,-2.31 13.6,-4.25 16.79,-3.63 16.67,8.01 29.48,15.48 41.71,22.83 19.42,11.67 38.46,21.96 59.64,43.09 19.69,19.63 31.78,40.09 44.38,60.47 8.04,13.01 15.83,26.45 22.78,42.77zm-96.01 -146.74c29.62,5.6 15.71,-8.28 42.24,18.25 2.34,2.34 0.55,5.68 -3.49,8.53 -5.08,3.6 -36.45,-5.38 -38.76,-26.78zm-0.34 11.55c-15.27,-9.19 -21.77,-15.75 -28.41,-20.59 1.9,0.55 4.51,1.66 12.4,4.34 9.5,3.23 14.22,1.27 15.27,10.05l0.74 6.21zm78.92 80.53c1.14,3.66 2.39,7.28 3.69,10.81 -5.45,-7.74 -14.61,-18.96 -23.92,-35.45 2.45,0.25 4.9,0.5 7.35,0.74 11.01,1.11 8.93,11.26 12.88,23.9zm-33.3 -59.01c2.68,-3.63 5.91,-5.87 8.06,-3.72 21.31,21.3 15.81,10.83 19.15,37.48 -21.65,-1.87 -32.38,-26.77 -27.21,-33.77zm44.87 -47.51c2.41,3.14 4.02,6.75 3.03,8.66 -3.31,6.37 -8.46,14.01 -12.52,22.56 -3.83,8.07 -6.63,17.02 -8.05,24.41 -18.92,-23.33 16.05,-57.56 17.54,-55.62zm-59.45 14.19c8.16,-0.71 16.52,-3.54 24.22,-7.33 6.94,-3.42 18.5,-12.91 22.72,-14.41 2.53,-0.9 5.39,1.29 8.17,3.64 2.88,2.44 -32.49,36.12 -55.1,18.11z"/>
 </g>
</svg>
