<?xml version="1.0" encoding="UTF-8"?>
<!DOCTYPE svg PUBLIC "-//W3C//DTD SVG 1.1//EN" "http://www.w3.org/Graphics/SVG/1.1/DTD/svg11.dtd">
<!-- Creator: CorelDRAW 2021 (64-Bit) -->
<svg xmlns="http://www.w3.org/2000/svg" xml:space="preserve" width="35.3215mm" height="37.5257mm" version="1.1" style="shape-rendering:geometricPrecision; text-rendering:geometricPrecision; image-rendering:optimizeQuality; fill-rule:evenodd; clip-rule:evenodd"
viewBox="0 0 670.51 712.35"
 xmlns:xlink="http://www.w3.org/1999/xlink"
 xmlns:xodm="http://www.corel.com/coreldraw/odm/2003">
 <defs>
  <style type="text/css">
   <![CDATA[
    .fil2 {fill:url(#id0)}
    .fil5 {fill:url(#id1)}
    .fil0 {fill:url(#id2)}
    .fil3 {fill:url(#id3)}
    .fil8 {fill:url(#id4)}
    .fil1 {fill:url(#id5)}
    .fil7 {fill:url(#id6)}
    .fil4 {fill:url(#id7)}
    .fil6 {fill:url(#id8)}
   ]]>
  </style>
  <linearGradient id="id0" gradientUnits="userSpaceOnUse" x1="211.2" y1="138.64" x2="534.54" y2="138.64">
   <stop offset="0" style="stop-opacity:1; stop-color:#FFDCC0"/>
   <stop offset="1" style="stop-opacity:1; stop-color:#A68F7D"/>
  </linearGradient>
  <linearGradient id="id1" gradientUnits="userSpaceOnUse" xlink:href="#id0" x1="188" y1="486.99" x2="443.31" y2="486.99">
  </linearGradient>
  <linearGradient id="id2" gradientUnits="userSpaceOnUse" xlink:href="#id0" x1="436.81" y1="104.81" x2="537.79" y2="104.81">
  </linearGradient>
  <linearGradient id="id3" gradientUnits="userSpaceOnUse" xlink:href="#id0" x1="12.15" y1="247.93" x2="492.94" y2="247.93">
  </linearGradient>
  <linearGradient id="id4" gradientUnits="userSpaceOnUse" xlink:href="#id0" x1="499.94" y1="466.82" x2="668.71" y2="466.82">
  </linearGradient>
  <linearGradient id="id5" gradientUnits="userSpaceOnUse" xlink:href="#id0" x1="301.03" y1="111.14" x2="505.51" y2="111.14">
  </linearGradient>
  <linearGradient id="id6" gradientUnits="userSpaceOnUse" xlink:href="#id0" x1="525.88" y1="330.84" x2="617.71" y2="330.84">
  </linearGradient>
  <linearGradient id="id7" gradientUnits="userSpaceOnUse" xlink:href="#id0" x1="180.6" y1="362.41" x2="471.76" y2="362.41">
  </linearGradient>
  <linearGradient id="id8" gradientUnits="userSpaceOnUse" xlink:href="#id0" x1="402.5" y1="471.56" x2="533.21" y2="471.56">
  </linearGradient>
 </defs>
 <g id="Layer_x0020_1">
  <metadata id="CorelCorpID_0Corel-Layer"/>
  <g id="_2356253990464">
   <path class="fil0" d="M493.37 29.36c-4.92,-6.94 -11.18,-9.23 -17.1,-8.71 -3.92,-5.99 -8.84,-11.35 -14.01,-15.52 -3.94,-3.19 -9.56,-2.18 -11.21,2.96 -2,6.22 -3.55,14.21 -3.85,22.3 -3.14,3.45 -5.22,8.23 -5.41,14.52 -0.68,23.31 -10.73,42.1 -6.98,65.75 2.5,15.76 9.06,31.08 17.86,44.38 17.8,26.88 43.34,44.13 74.78,49.98 0.42,0.08 0.69,-0.48 0.3,-0.71 -26.1,-15.28 -49.15,-37.19 -58.93,-66.5 -2.71,-8.12 -3.61,-15.56 -3.35,-22.6 0.98,3.04 2.08,6.05 3.42,9 10,21.99 27.99,37.94 47.12,51.95 0.75,0.55 1.49,-0.6 0.94,-1.22 -24.26,-27.2 -39.91,-54.98 -30.21,-91.68 0.53,-2.01 0.94,-3.9 1.35,-5.77 1.42,3.28 2.58,7.08 3.36,11.92 1.83,11.36 2.09,21.69 6.3,32.66 7.61,19.85 20.62,34.25 39.66,43.36 0.38,0.18 0.81,-0.3 0.47,-0.61 -27.8,-25.36 -24.19,-52.05 -21.11,-85.55 2.14,-23.27 -11.09,-32.53 -23.41,-49.91z"/>
   <path class="fil1" d="M421.78 42.72c-5.53,-7.34 -14.6,-11.83 -23.38,-8.56 -8.81,-3.53 -19.37,-2.1 -24.91,8.4 -1.36,2.57 -2.58,5.13 -3.71,7.68 -6.41,-20 -18.81,-37.9 -35.79,-47.2 -17.09,-9.36 -30.6,4.52 -31.4,18.5 -3.1,5.72 -3.98,12.74 -0.64,20.09 15.22,33.53 14.31,64.92 38.25,95.36 17.56,22.32 37.61,40.48 64.13,50.93 0.42,0.17 0.66,-0.49 0.3,-0.71 -31.13,-18.72 -62.37,-58.22 -64.61,-95.53 -0.24,-3.97 -0.1,-7.73 0.15,-11.42 7.94,19.02 16.97,35.96 21.55,56.51 0.18,0.82 1.55,0.65 1.48,-0.2 -1.34,-17.55 -4.05,-34.65 -7.63,-51.69 1.68,4.07 3.38,8.19 5.29,12.29 3.24,54.02 52.72,98.45 106.97,116.94 0.42,0.14 0.68,-0.5 0.3,-0.71 -45.69,-24.87 -85.5,-68.83 -73.7,-117.87 1.45,12.26 3.16,24.42 8.76,36.92 20.35,45.45 55.69,69.28 102.01,83.82 0.52,0.17 0.71,-0.61 0.22,-0.8 -41.43,-15.88 -81.56,-50.73 -85.5,-97.39 -2.15,-25.54 19.21,-52.32 1.86,-75.35z"/>
   <path class="fil2" d="M534.3 229.66c-91.55,1.06 -210.4,-42.17 -247.18,-133.51 10.28,10.75 18.13,23.07 26.36,35.51 0.07,0.1 0.23,0.04 0.2,-0.08 -3.51,-13.46 -9.8,-26.19 -16.63,-38.34 4.53,5.33 8.44,11.81 12.75,18.9 13.98,23.08 31.32,42.24 53.13,58.17 0.11,0.08 0.24,-0.09 0.14,-0.18 -18.27,-16.67 -34.24,-36.09 -44.99,-58.49 -8.14,-16.96 -12.51,-34.98 -28.18,-46.95 -11.55,-8.82 -24.64,-11.87 -36.55,-9.89 -0.46,-0.06 -0.91,-0.14 -1.39,-0.17 -22.61,-1.86 -41.06,13.2 -40.91,36.39 0.13,20.48 14.55,39.49 28.24,53.61 40.25,41.52 106.66,66.87 162.03,78.57 0.52,0.11 0.73,-0.65 0.22,-0.8 -34.89,-10.14 -64.47,-29.71 -93.88,-50.37 -13.13,-9.22 -27.31,-18.39 -38.68,-29.81 -1.14,-1.14 -2.22,-2.32 -3.27,-3.53 4.83,3.08 9.72,6.08 14.34,9.36 9.95,7.06 18.5,15.49 29.69,20.69 0.57,0.26 1.03,-0.36 0.65,-0.84 -7.3,-9.36 -16.87,-16.65 -24.07,-26.11 -3.15,-4.14 -6.04,-8.67 -8.71,-13.34 67.47,70.57 155.65,117.84 256.81,102.03 0.47,-0.07 0.34,-0.82 -0.11,-0.81z"/>
   <path class="fil3" d="M16.95 268.79c4.12,1.37 8.18,2.11 12.18,2.42 26.48,14.46 55.49,22.64 81.61,39.36 19.78,12.66 39.36,26.61 63.12,30.55 12.19,2.02 24.79,1.29 35.8,-2.58 0.85,1.92 2.02,3.63 3.58,4.88 35.03,28.03 62.04,2.58 89.37,-22.3 50.49,-45.96 122.7,-66.86 190.09,-65.93 0.46,0 0.57,-0.74 0.11,-0.82 -55.46,-9.33 -106.74,-2.2 -156.67,24.71 -30.03,16.19 -50.85,38.19 -83.59,38.96 11.33,-28.78 49.33,-46.97 76.65,-54.78 0.44,-0.12 0.37,-0.85 -0.11,-0.81 -38.76,2.81 -98.87,25.82 -117.65,58.4 -16.51,3.63 -33.17,-1.46 -50.02,-10.57 18.37,-0.92 37.56,-6.56 52.09,-10.99 0.51,-0.16 0.3,-0.92 -0.22,-0.8 -17.49,4.26 -67.48,-0.55 -84.06,-9.02 41.94,3.45 90.45,-11.76 124.02,-21.68 2.05,-0.6 1.72,-3.95 -0.52,-3.81 -31.02,1.91 -61.49,2.5 -92.52,0.64 -14.32,-0.85 -27.93,-4.14 -41.47,-7.37 10.92,-2.91 21.82,-5.84 32.63,-7.15 29.93,-3.63 59.05,-2.71 89.05,-0.79 54.69,3.49 107.66,6.16 161.33,-6.77 0.42,-0.1 0.33,-0.82 -0.1,-0.76 -63.35,7.98 -126.55,-3.78 -189.43,-11.09 -33.6,-3.91 -81.91,-14.23 -119.27,-4.4 -17.95,3.7 -6.57,-14.59 10.26,-18.15 16.32,5.88 33.88,8.84 50.61,3.43 1.71,-0.55 1.99,-3.34 0,-3.74 -13.75,-2.8 -27.19,-5.54 -39.87,-11.4 8.69,-6.65 18.35,-8.59 28.29,-8.05 1.47,0.49 2.99,0.85 4.57,1.04 0.81,0.85 1.73,1.66 2.84,2.38 44.62,28.7 106.56,39.87 158.82,40.13 0.46,0 0.58,-0.74 0.11,-0.81 -26.15,-4.28 -52.2,-11.61 -76.68,-21.77 -19.12,-7.94 -34.51,-19.01 -50.5,-30.38 0.07,-0.03 0.13,-0.05 0.2,-0.08 25.56,16.16 60.7,22.99 87.8,29.93 0.52,0.13 0.74,-0.68 0.22,-0.8 -19.78,-4.67 -38.85,-12.97 -56.79,-22.44 -5.58,-2.94 -10.93,-6.4 -16.27,-9.88 13.22,-0.53 28.46,3.77 39.76,7.56 22.01,7.38 43.23,17.29 64.86,25.7 42.46,16.5 82.03,27.01 127.62,24 0.53,-0.03 0.54,-0.81 0,-0.83 -67.18,-2.1 -126.04,-38.32 -184.98,-66.65 -33.84,-16.26 -79.83,-44.22 -110.91,-11.79 -5.53,5.77 -7.07,12.19 -5.98,18 -4.94,-0.22 -9.88,0.07 -14.65,0.94 -13.2,2.44 -24.77,9.52 -34.67,18.38 -14.03,12.55 -25.83,36.09 -47.85,31.37 -30.36,-6.5 -42.2,36.62 -12.79,46.41z"/>
   <path class="fil4" d="M183.12 435.01c4.32,3.85 9.99,6.97 16.01,8.94 0.95,1.71 2.09,3.33 3.66,4.69 37.28,32.43 86.36,27.49 115.91,-12.68 17.25,-23.45 18.74,-54.15 32.78,-79.33 21.09,-37.81 59.9,-64.24 102.02,-72.3 0.53,-0.1 0.29,-0.87 -0.22,-0.8 -55.23,7.46 -99.64,36.78 -123.02,88.39 -13.6,30.01 -27.65,48.82 -47,54.51 0.87,-0.73 1.75,-1.47 2.6,-2.22 10.26,-9.06 18.95,-19.67 26.05,-31.35 10.25,-16.87 14.94,-36.74 27.05,-52.4 0.49,-0.64 -0.32,-1.54 -0.91,-0.92 -11.81,12.56 -18.72,26.99 -27.99,40 14.34,-25.84 20.61,-51.31 48.97,-68.57 33.79,-20.57 74.75,-34.36 112.65,-44.84 0.52,-0.14 0.3,-0.92 -0.22,-0.8 -46,11.44 -108.11,21.62 -143.6,56.2 -20.22,19.7 -29.95,47.63 -55.08,62.61 -22.24,13.26 -47.21,7.63 -69.14,20.02 -4.53,2.56 -6.7,6.79 -7.01,11.2 -3.93,0.54 -8.22,0.72 -8.7,-1.25 -0.51,-2.12 -2.81,-2.64 -4.56,-1.86 -9.76,4.38 -6.7,17 -0.25,22.73z"/>
   <path class="fil5" d="M299.59 659.19c1.42,19.06 31.61,30.12 46.53,10.24 11.61,-15.47 23.73,-27.87 37.5,-41.41 10.11,-9.93 19.81,-21.63 23.78,-35.52 2.54,-8.89 2.42,-20.3 -1.1,-29.7 2.37,-0.55 4.79,-1.41 7.28,-2.98 24.66,-15.57 36.44,-38.79 32.21,-68.12 -2.71,-18.81 -11.43,-34.07 -19.61,-50.81 -18.39,-37.62 -19.3,-65.48 -2.52,-104.97 0.2,-0.47 -0.45,-0.89 -0.72,-0.42 -11.24,19.73 -23.93,39.8 -25.17,63.18 -1.37,25.73 34.06,97.76 4.84,116.49 -4.84,-13.08 -2.03,-27.67 -1.4,-43.56 0.13,-3.39 0.09,-6.8 -0.04,-10.21 0.12,-0.48 0.19,-0.95 0.32,-1.43 0.08,-0.28 -0.16,-0.47 -0.39,-0.5 -0.74,-14.39 -3.69,-28.87 -8.32,-42.31 -0.04,-0.13 -0.21,-0.1 -0.23,0.03 -2.33,22.33 2.06,41 -8.42,62.06 -5.4,10.88 -11.43,20.16 -12.08,32.72 -0.43,8.5 1.41,17.1 5.24,24.32 0.02,2.3 0.09,4.6 0.29,6.9 0.62,7.11 4.52,11.26 9.24,12.94 1.43,1.62 3.04,3.01 4.82,4.16 1.63,6.44 1.23,12.36 -0.69,17.78 -1.97,-13.17 -9.01,-30.44 -21.37,-30.26 -0.1,0 -0.13,0.11 -0.08,0.18 4.75,5.72 9.8,12.16 11.59,19.6 3.03,12.61 -1.8,18.02 -8.29,24.83 2.78,-8.7 3.88,-18.18 -0.45,-25.29 -0.49,-0.79 -1.51,-0.7 -2.01,0 -0.04,0.06 -0.07,0.12 -0.11,0.18 -0.61,-2.98 -1.98,-5.39 -4.36,-6.95 -1.67,-1.09 -3.57,1.03 -2.65,2.65 2.72,4.8 -5.26,18.27 -7.14,21.66 -1.95,3.51 -4.08,6.92 -6.26,10.31 2.65,-33.93 13.34,-61.98 23.1,-97.19 10.42,-37.61 12.6,-75.76 15.07,-114.49 0.03,-0.54 -0.77,-0.52 -0.83,0 -5.99,54.95 -19.69,105.92 -44.36,155.33 -1.31,2.62 -2.61,5.23 -3.91,7.86 1.87,-7.19 2.86,-14.08 -1.86,-18.12 -0.09,-0.08 -0.21,-0.09 -0.31,0 -5.33,4.88 -7.96,13.43 -11.77,19.64 -2.91,4.75 -4.96,9.71 -6.02,14.93 -0.27,-9.54 2.51,-18.8 5.95,-28.15 41.58,-46.52 35.64,-125.2 56.22,-180.16 0.16,-0.44 -0.57,-0.74 -0.76,-0.32 -15.1,34.1 -22.93,69.71 -34.68,104.91 -8.2,24.58 -22.56,56.38 -48.14,67.47 0.26,-0.2 0.54,-0.39 0.79,-0.59 20.43,-16.45 41.68,-37.93 37.27,-66.54 -0.04,-0.22 -0.36,-0.19 -0.42,0 -4.15,14.8 -11.36,26.23 -21.59,33.84 1.97,-2.26 3.88,-4.61 5.69,-7.11 39.54,-54.51 25.36,-177.05 113.74,-182.61 0.53,-0.03 0.54,-0.82 0,-0.83 -46.89,-0.36 -71.93,32.64 -87.25,73.85 -14.36,38.62 -20.64,95.56 -66.49,110.73 -27.72,9.16 -49.55,-14.99 -75.22,-6.11 -3.42,1.18 -6.25,3.96 -7.06,7.51 -6.07,3.05 -10.51,8.75 -9.64,16.33 5.88,51.32 78.38,71.89 118.36,46.29 -5.55,8.03 -9.68,16.86 -10.87,26.92 -2.76,23.42 16.2,40.31 5.46,63.41 -2.9,6.25 -2.75,12.3 -0.73,17.46z"/>
   <path class="fil6" d="M522.74 257.19c0.47,-0.26 0.06,-0.95 -0.41,-0.72 -59.66,30.36 -90.73,84.77 -84.93,152.04 4.13,47.86 24.66,92.94 25.03,141.22 0.19,25.42 -5.34,51.87 -24.45,70.07 -14.06,13.38 -23.83,15.5 -27.98,34.77 -16.1,10.99 -24.26,37.76 -1.26,48.75 76.14,36.41 133.51,-44.45 128.48,-115.38 -7.76,-109.42 -117.69,-216.15 -18.74,-315.21 0.38,-0.38 -0.2,-0.96 -0.58,-0.59 -52.32,51.63 -57.75,106.41 -37.44,175.8 13.49,46.08 35.04,90.77 32.6,139.99 -0.46,9.24 -2,19.09 -4.73,28.46 4.06,-36.05 -1.28,-76.46 -18.47,-107.43 -0.06,-0.11 -0.24,-0.03 -0.21,0.09 6.76,24.97 10.22,48.27 6.15,72.41 -4.37,-115.55 -108.41,-249.99 26.93,-324.29z"/>
   <path class="fil7" d="M551.16 281.76c0.66,-0.99 -0.62,-2.17 -1.59,-1.59 -18.16,10.73 -17.98,34.71 -6.17,50.25 4.62,6.07 11.52,11.35 19.34,15.19 0,0.1 -0.03,0.2 -0.02,0.3 0.04,0.65 -5.11,5.15 -13.88,1.03 -13.39,-6.28 -21.88,-19.17 -22.27,-33.58 -0.06,-2.3 -3.05,-2.5 -3.81,-0.52 -9.63,25.29 5.09,54.88 28.94,66.17 14.53,6.88 32.32,6.47 44.52,-5.03 7.42,-6.99 10.05,-16.62 8.58,-25.43 5.06,-2.39 9.5,-6.05 12.82,-11.39 3.91,-6.29 1.73,-16.57 -5.23,-19.94 -15.82,-7.67 -28.91,1.87 -45.16,-0.74 -16.84,-2.71 -25.84,-19.92 -16.05,-34.72z"/>
   <path class="fil8" d="M644.45 459.81c21.99,-27.43 9.65,-62.03 -27.56,-64.78 -28.73,-2.12 -53.8,7.86 -81.44,-8.42 -39.07,-23.02 -41.95,-78.75 -3.53,-104.87 0.44,-0.3 0.02,-1.02 -0.42,-0.71 -26.8,18.88 -41.63,52.07 -27.09,83.76 8.32,18.13 25.28,30.83 42.41,40.11 9.59,5.2 19.93,9.3 30.47,12.04 2.14,0.56 32.15,8.94 33.3,9.24 18.07,4.91 -6.57,10.7 -6.63,10.71 -10.3,1.54 -23.56,-2.87 -31.95,-8.69 -0.39,-0.28 -0.83,0.33 -0.5,0.65 8.48,8.47 16.01,15.21 26.6,20.98 3.05,1.66 35.93,9.05 47.35,30.84 -14.95,-7.97 -32.06,-11.04 -44.78,-23.08 -0.11,-0.11 -0.33,-0.07 -0.36,0.09 -1.38,6.83 3.53,12.36 8.51,16.66 -10.4,-5.67 -20.36,-12.92 -26.98,-22.64 -0.25,-0.36 -0.94,-0.14 -0.76,0.32 6.26,15.53 15.43,31.23 27.66,43.29 14.04,12.36 3,23.4 -11.17,10.94 -0.32,-0.15 -0.68,-0.28 -1,-0.43 -5.98,-10.02 -11.11,-20.51 -15.4,-31.55 -0.16,-0.4 -0.87,-0.39 -0.81,0.11 1.48,13.88 1.94,27.51 5.6,41.1 2.84,10.55 8.9,21.1 11.99,31.94 -5.98,-9.53 -11.33,-19.88 -19.41,-27.35 -0.14,-0.13 -0.36,-0.03 -0.37,0.15 -0.43,14.73 5.6,30.41 8.58,44.82 0.42,2.04 0.84,4.09 1.25,6.12 -12.6,-32.09 -11.07,-70.08 -23.56,-102.2 -10.18,-26.21 -21.58,-50.39 -43.81,-68.19 -0.41,-0.32 -0.99,0.24 -0.58,0.59 38.23,33.13 39.12,82.6 42.76,131.03 -1.71,-4.82 -3.38,-9.64 -5,-14.42 -10.31,-30.33 -9.57,-81.11 -39.55,-100.24 -0.43,-0.28 -0.83,0.32 -0.52,0.67 25.18,29.49 23.81,76.96 27.76,113.94 -0.02,-0.14 -0.04,-0.28 -0.06,-0.42 -4.25,-27.81 -10.34,-54.46 -21.06,-80.54 -10.81,-26.29 -25.68,-49.22 -28.56,-78.28 -0.05,-0.52 -0.84,-0.54 -0.83,0 0.74,29.43 11.45,53.26 21.41,80.48 13.27,36.25 14.34,72.25 18.77,109.89 5.3,45.06 28.2,72.86 69.51,92.12 17.17,8 32.05,-5.49 30.14,-20.51 2.37,-4.22 3.82,-8.99 4.1,-13.52 1.85,-29.81 3.17,-59.08 -7.67,-82.24 19.09,-2.94 36.64,-19.02 38.99,-39.61 2.11,-18.36 -10.3,-31.99 -25.82,-39.92z"/>
  </g>
 </g>
</svg>
