<?xml version="1.0" encoding="UTF-8"?>
<!DOCTYPE svg PUBLIC "-//W3C//DTD SVG 1.1//EN" "http://www.w3.org/Graphics/SVG/1.1/DTD/svg11.dtd">
<!-- Creator: CorelDRAW 2021 (64-Bit) -->
<svg xmlns="http://www.w3.org/2000/svg" xml:space="preserve" width="53.1596mm" height="8.0433mm" version="1.1" style="shape-rendering:geometricPrecision; text-rendering:geometricPrecision; image-rendering:optimizeQuality; fill-rule:evenodd; clip-rule:evenodd"
viewBox="0 0 6174.28 934.2"
 xmlns:xlink="http://www.w3.org/1999/xlink"
 xmlns:xodm="http://www.corel.com/coreldraw/odm/2003">
 <g id="Layer_x0020_1">
  <metadata id="CorelCorpID_0Corel-Layer"/>
  <g id="_3024502351120">
   <g>
    <path d="M5755.9 9.77c86.92,14.66 212.27,73.29 279.99,131.91 57.11,49.03 114.22,141 131.4,212.27 7.07,27.79 8.08,47.5 6.06,84.9 -4.04,64.69 -13.14,97.54 -49.03,170.83 -27.79,56.6 -34.37,66.2 -79.34,111.69 -93.5,94.51 -212.27,149.6 -378.03,175.37 -68.74,10.62 -203.67,14.66 -280.49,8.59 -58.12,-5.05 -87.43,-11.12 -207.22,-43.97l-33.36 -9.09 -20.21 13.14c-32.35,21.73 -81.87,38.92 -133.43,46.5 -62.66,9.59 -165.26,9.59 -205.69,0 -30.33,-7.08 -34.37,-7.08 -90.97,6.06 -51.05,11.63 -71.27,13.65 -143.02,13.65 -95.02,0.5 -130.4,-5.56 -231.98,-38.41 -72.78,-23.76 -123.31,-48.53 -180.93,-90.47 -22.74,-16.18 -44.47,-29.83 -48.51,-29.83 -4.04,0 -27.81,9.11 -52.57,20.72 -133.93,61.66 -223.38,90.47 -318.9,103.1 -137.97,18.2 -265.32,2.02 -349.73,-43.96 -142.01,-77.84 -216.31,-192.56 -218.33,-338.61 -1.01,-56.61 7.58,-93.5 34.37,-146.56 82.88,-164.25 231.47,-262.3 440.7,-289.59 149.6,-19.71 293.63,-4.55 440.7,45.48 110.68,37.9 143.52,52.56 225.4,101.07l72.78 43.47 56.6 -17.69c129.38,-39.93 257.24,-36.9 363.37,9.09 67.72,29.32 142.52,88.45 173.86,136.96 12.13,18.7 20.21,25.77 29.81,26.78 33.36,2.53 115.74,54.08 157.68,97.54 56.61,59.64 73.29,91.48 79.86,153.64 4.04,33.36 -6.57,83.89 -20.22,99.56 -7.58,7.58 -5.56,9.11 26.78,18.7 91.99,27.29 201.15,45.49 294.64,49.54 138.99,5.55 258.76,-27.29 377.53,-103.1 45.48,-28.8 70.25,-51.05 108.16,-96.53 59.63,-71.77 91.48,-151.62 92.49,-230.97 0.5,-50.04 -9.09,-79.85 -41.95,-129.89 -74.8,-113.71 -216.81,-193.06 -377.52,-210.75 -123.82,-14.15 -310.32,35.89 -385.12,103.1 -63.17,56.61 -94,128.88 -82.37,191.55 7.07,37.9 19.2,56.6 60.14,94 76.31,68.74 177.89,100.57 303.73,94.51 143.53,-6.57 246.13,-71.26 244.62,-153.64 -1.52,-68.22 -52.57,-111.69 -152.63,-130.9 -40.43,-8.08 -52.06,-8.08 -90.47,-3.03 -63.17,9.09 -137.47,48.01 -137.47,71.77 0,14.66 25.27,40.94 49.52,52.06 15.17,6.56 38.92,10.62 72.78,12.13l50.04 3.03 -1.51 20.72 -1.52 20.72 -60.64 -0.5c-75.31,0 -107.66,-9.09 -140.5,-37.4 -38.92,-34.37 -43.46,-76.82 -13.15,-121.29 28.82,-42.45 84.91,-69.75 169.82,-83.9 56.6,-9.09 85.41,-9.09 134.94,0.51 77.33,14.66 145.55,61.15 173.35,117.76 18.7,37.9 19.21,94 1.52,139.48 -25.77,66.71 -100.07,129.39 -189.53,159.7 -42.95,14.16 -59.63,17.19 -109.17,19.21 -144.03,5.56 -259.26,-33.86 -348.72,-119.27 -53.07,-50.55 -72.78,-79.35 -79.85,-119.27 -11.63,-63.68 -2.02,-145.55 22.23,-187.51 20.22,-34.87 54.59,-76.31 85.92,-102.59 55.59,-45.99 160.71,-89.96 252.69,-104.61 61.66,-10.12 173.35,-9.11 240.57,2.52l0 0zm-2148.42 154.15c-103.6,13.65 -213.27,60.64 -270.38,116.24 -50.55,49.52 -72.28,82.38 -95.02,145.04 -17.18,49.03 -20.21,63.17 -20.21,97.54 0,108.67 70.25,216.81 173.35,266.35 101.08,48.01 187.49,62.16 299.19,48.01 79.34,-10.12 115.73,-20.73 223.38,-66.21 43.96,-18.7 84.9,-35.88 90.97,-37.9 9.09,-3.54 6.57,-6.06 -20.21,-19.71 -16.68,-8.59 -58.12,-31.34 -91.99,-51.05l-61.15 -35.88 -34.37 15.66c-70.25,31.85 -152.12,44.98 -218.83,35.38 -54.08,-8.08 -77.33,-16.68 -110.18,-41.44 -65.7,-50.04 -74.3,-134.43 -20.72,-209.23 19.71,-27.29 76.31,-69.75 118.76,-88.96 61.15,-27.79 111.7,-37.4 196.6,-36.39 115.23,0.51 178.4,16.18 291.11,71.77l53.57 26.78 29.32 -19.2c16.68,-10.12 46.49,-26.28 66.71,-35.89 38.41,-17.69 41.95,-23.24 17.69,-28.29 -7.58,-1.52 -31.85,-13.15 -53.58,-26.28 -116.24,-68.74 -246.62,-115.74 -374.49,-135.45 -23.25,-4.04 -129.89,1.52 -189.53,9.11l0 0zm886.97 137.46c-16.68,4.05 -33.36,9.11 -37.41,11.13 -4.54,3.03 17.19,21.22 71.77,60.64 43.47,30.84 81.37,56.1 84.91,56.1 3.03,0 21.22,-4.54 39.42,-9.61 36.39,-11.12 109.67,-19.71 178.4,-21.73 24.76,-1.01 44.47,-3.03 44.47,-5.05 0,-2.52 -2.52,-4.04 -5.56,-4.04 -3.03,0 -18.7,-9.09 -34.87,-19.71 -104.11,-71.26 -228.95,-96.02 -341.14,-67.72l0.01 0zm-252.7 95.52c-74.3,37.41 -74.8,37.91 -47.5,55.6 12.13,7.58 44.47,30.33 71.26,51.05l49.52 36.89 23.75 -11.61c13.65,-6.57 46.5,-20.72 73.79,-31.34 26.79,-10.62 47.52,-21.23 44.98,-23.75 -9.61,-9.61 -150.61,-105.12 -155.16,-105.12 -3.03,0 -30.31,12.64 -60.64,28.3l0 -0.01zm-611.52 -10.1c-40.44,10.62 -93,38.92 -120.79,64.69 -34.88,32.35 -42.96,77.32 -20.72,110.18 34.37,51.05 133.93,69.23 229.95,42.45l42.96 -11.63 -19.21 -8.59c-45.98,-19.2 -86.41,-28.29 -125.33,-28.29 -39.42,0 -39.92,0 -47.5,-15.67 -10.62,-19.71 -5.05,-26.28 29.32,-37.91 20.21,-6.56 35.37,-7.57 71.26,-5.55 45.48,3.03 129.89,21.22 175.37,37.4l23.25 8.08 62.66 -37.4c34.37,-20.72 67.23,-38.92 72.28,-41.44 5.05,-2.02 8.59,-4.55 7.58,-5.56 -1.01,-1.01 -24.26,-11.12 -51.56,-22.74 -136.96,-56.61 -238.04,-71.27 -329.51,-48.01l0 0zm1128.03 80.86c-31.34,4.55 -60.65,9.61 -65.2,11.63 -6.06,2.02 24.26,25.77 107.66,85.41 63.67,45.48 119.27,83.38 122.81,84.9 17.18,6.57 16.68,-154.65 -0.51,-174.36 -2.53,-3.54 -70.76,-14.66 -91.48,-15.16 -9.09,-0.51 -42.45,3.03 -73.28,7.57l0 0zm-700.99 34.88c-3.53,4.54 -30.31,21.73 -59.13,38.91 -28.8,17.19 -51.55,32.86 -51.05,34.88 3.03,7.57 143.03,105.62 148.09,103.6 11.63,-4.55 124.32,-80.36 122.3,-82.38 -6.06,-5.56 -148.07,-102.59 -150.61,-102.59 -2.02,0 -6.06,3.53 -9.61,7.58l0 0zm954.19 44.47c2.52,53.07 -7.07,97.54 -24.76,115.23 -5.56,5.56 -9.61,11.63 -8.1,12.64 4.04,4.04 160.72,82.88 164.76,82.88 8.59,0 17.18,-45.99 14.15,-74.29 -6.06,-59.64 -57.61,-131.41 -119.77,-167.29 -15.17,-8.59 -27.81,-16.18 -28.3,-16.18 -0.51,0 0.5,21.23 2.02,47l0 0zm-538.76 0.5c-29.81,12.14 -66.2,25.78 -80.86,30.84 -15.16,4.54 -25.26,10.6 -22.74,12.63 2.02,2.02 62.16,43.97 133.43,93 142.01,97.54 229.95,147.58 251.18,142.01 15.67,-4.04 63.68,-34.37 86.92,-55.09 9.61,-8.59 23.25,-19.2 30.33,-23.75l12.64 -8.08 -55.6 -28.3c-30.83,-15.67 -108.14,-63.17 -171.83,-106.63 -64.18,-42.96 -119.27,-78.34 -122.81,-78.34 -3.53,-0.5 -30.83,9.61 -60.64,21.73l-0.01 0zm-263.3 136.46l-72.28 36.89 52.57 28.82c142.01,77.32 202.66,101.07 294.64,114.22 34.37,4.54 133.93,1.51 133.93,-4.55 0,-1.51 -19.71,-13.14 -43.96,-25.77 -53.07,-27.29 -132.93,-77.83 -221.36,-140.5 -36.39,-25.77 -67.23,-46.49 -68.74,-46.49 -1.52,0 -35.38,16.68 -74.8,37.4l0 0zm704.52 114.22c-14.16,14.15 -33.87,31.34 -43.97,38.92 -10.62,7.07 -17.69,15.16 -15.67,18.19 1.52,3.03 24.76,4.04 61.66,2.02 43.96,-2.02 68.74,-5.56 100.06,-15.67 23.25,-7.58 41.95,-15.16 41.95,-17.18 -0.51,-3.54 -103.6,-49.54 -113.72,-51.05 -3.03,0 -16.68,11.12 -30.31,24.76z"/>
    <path d="M664.08 7.75c86.92,14.66 198.11,61.66 249.67,105.63 29.3,25.77 64.18,67.71 83.38,101.07 24.26,41.95 33.87,123.82 22.24,187.51 -7.07,39.42 -25.77,67.72 -79.85,119.77 -89.46,85.92 -204.18,124.83 -351.76,118.26 -52.56,-2.52 -67.21,-5.05 -110.68,-20.21 -58.63,-21.23 -95.52,-44.47 -136.46,-85.91 -33.36,-34.37 -52.06,-70.26 -60.14,-116.75 -17.69,-104.61 65.7,-192.55 205.2,-215.8 46.99,-8.08 122.3,-1.01 177.39,15.67 119.27,37.4 165.26,130.39 95.01,192.55 -32.35,28.3 -65.19,36.9 -139.99,37.4l-60.64 0 -1.52 -20.72 -1.51 -20.72 50.02 -3.03c33.87,-1.51 57.62,-5.56 72.78,-12.13 24.26,-11.12 49.54,-37.4 49.54,-52.06 0,-24.26 -73.29,-62.67 -136.96,-71.26 -37.91,-5.56 -49.54,-5.06 -90.98,2.52 -101.08,19.71 -152.12,63.68 -152.63,131.91 -1.01,81.87 102.09,146.05 244.6,152.63 94.51,4.55 168.3,-10.62 243.6,-50.54 32.85,-17.19 88.45,-66.2 104.11,-91.48 16.68,-26.28 22.23,-65.19 15.16,-105.63 -10.1,-63.17 -71.26,-137.97 -141,-172.84 -92.49,-45.99 -239.05,-74.29 -330.02,-62.67 -54.08,6.57 -152.13,35.89 -196.6,58.12 -96.03,48.53 -182.45,137.47 -209.74,215.8 -25.78,73.79 3.53,194.08 66.7,276.45 55.6,71.77 115.23,118.77 206.71,161.73 61.16,29.3 104.11,42.45 174.87,53.57 102.59,16.68 272.41,-1.01 415.94,-43.97 32.35,-9.61 34.37,-11.12 26.78,-18.7 -8.59,-9.61 -23.25,-61.65 -23.25,-81.87 0.51,-32.85 15.67,-83.89 33.87,-110.68 25.26,-38.92 69.23,-83.9 104.1,-107.66 33.87,-23.24 88.45,-49.52 104.62,-51.05 7.57,-0.5 16.68,-9.59 27.28,-26.27 30.33,-47 105.63,-106.13 173.35,-135.95 107.14,-47.52 242.08,-50.55 371.97,-8.59l49.03 16.17 54.59 -32.35c87.93,-52.56 98.04,-57.61 150.61,-78.33 201.14,-79.85 356.8,-102.59 535.2,-78.84 209.74,27.79 355.8,123.82 439.69,289.59 27.29,54.08 34.37,84.9 33.87,142.52 -0.51,143.53 -74.8,263.3 -209.24,337.09 -67.21,36.9 -151.12,56.61 -243.6,56.61 -143.52,0 -239.55,-24.26 -427.05,-108.16 -28.82,-12.64 -55.6,-23.25 -60.15,-23.25 -4.04,0 -22.23,11.12 -40.93,24.76 -74.3,55.09 -148.09,88.45 -258.76,116.75 -52.06,13.14 -75.81,16.68 -138.48,18.7 -70.76,2.53 -80.86,1.51 -151.62,-13.14 -72.27,-14.66 -76.82,-15.17 -103.6,-8.1 -35.88,9.61 -137.97,9.61 -205.69,0 -53.57,-7.57 -101.08,-23.75 -135.44,-46.49l-19.71 -13.14 -30.84 8.59c-158.69,43.96 -214.28,51.55 -353.77,46.99 -234,-7.57 -411.9,-73.79 -525.11,-196.59 -31.32,-33.87 -44.47,-53.58 -68.72,-102.6 -16.68,-33.36 -33.87,-74.29 -37.91,-90.97 -12.64,-47.5 -15.67,-125.33 -5.56,-163.24 17.69,-69.23 66.21,-150.1 122.31,-204.17 44.97,-42.45 140.49,-96.53 221.86,-124.32 72.27,-24.77 222.87,-33.87 313.85,-18.2l0 0zm1643.54 160.71c-111.7,25.78 -206.21,63.18 -304.76,121.3 -20.72,12.63 -47.5,25.26 -59.13,28.29l-20.22 5.56 52.57 26.78c28.8,14.16 60.14,31.85 69.23,37.91l16.68 12.13 48.53 -24.25c117.75,-58.12 181.43,-74.3 296.66,-74.8 62.67,-0.51 83.39,1.01 119.78,10.1 139.99,35.38 231.47,121.8 231.47,218.33 0,36.89 -23.75,80.86 -56.61,106.12 -32.85,24.77 -56.1,33.36 -110.18,41.45 -66.7,9.59 -148.59,-3.54 -218.83,-35.38l-34.37 -15.67 -51.55 30.83c-28.3,16.68 -69.25,38.92 -90.47,49.03 -21.23,10.1 -38.92,19.71 -38.92,21.22 -0.5,4.04 146.56,64.19 203.67,83.9 97.54,33.35 224.39,40.43 313.85,16.68 141.51,-36.9 225.4,-108.67 265.34,-227.43 31.84,-94.01 -5.06,-219.85 -90.47,-307.29 -42.96,-43.96 -87.95,-71.76 -153.14,-95.52 -62.67,-23.24 -91.98,-30.31 -150.61,-35.88 -29.32,-3.03 -61.15,-6.57 -70.76,-7.58 -37.9,-4.54 -116.24,2.53 -167.78,14.16l0 -0.01zm-767.19 124.33c-76.31,9.09 -130.39,29.3 -197.61,73.79 -18.7,12.13 -36.38,22.23 -39.42,22.23 -3.03,0 -5.55,1.52 -5.55,4.04 0,2.02 23.24,4.55 52.06,5.05 62.16,2.02 140.49,12.14 183.45,24.26l30.33 8.59 81.36 -57.62c44.98,-31.84 80.86,-58.12 79.86,-59.13 -6.57,-7.07 -78.34,-20.72 -133.94,-25.77 -4.54,0 -27.28,2.02 -50.54,4.55l0 0zm246.13 131.4c-40.93,28.3 -74.29,52.06 -73.28,53.07 1.01,0.51 23.24,9.61 49.52,20.22 26.28,10.6 59.13,24.25 72.78,30.83l24.76 12.13 38.41 -29.3c21.23,-16.18 53.07,-39.43 70.76,-51.05 28.3,-19.21 30.83,-22.74 24.26,-29.32 -13.65,-13.65 -112.2,-62.16 -122.31,-60.65 -5.55,1.01 -43.96,25.27 -84.9,54.08l0 0zm613.04 -42.96c-62.66,8.59 -87.43,15.17 -173.35,49.03 -57.62,22.74 -76.82,34.37 -57.11,34.37 3.54,0 35.88,17.69 71.77,38.92l65.19 39.42 40.43 -13.65c114.73,-38.41 218.83,-44.47 255.22,-15.16 11.13,9.09 11.13,9.59 3.04,25.26 -8.1,16.18 -8.59,16.18 -49.03,16.18 -32.35,0 -50.55,3.03 -88.45,16.17 -26.28,8.59 -47.5,17.69 -47.5,19.21 0,6.56 63.67,21.73 101.58,24.25 124.32,7.58 199.12,-49.03 168.8,-128.36 -20.72,-54.08 -127.35,-108.16 -222.36,-112.2 -8.59,-0.51 -38.92,2.52 -68.24,6.56zm-1100.24 83.9c-21.73,3.53 -41.94,8.08 -45.48,10.62 -3.03,2.52 -9.61,20.72 -14.15,40.43 -8.08,31.84 -8.08,40.93 -2.53,85.91 5.05,37.9 8.59,49.52 13.65,47.5 3.54,-1.51 59.13,-39.92 122.81,-84.9 131.4,-92.49 127.35,-84.4 48.01,-97.04 -58.63,-9.09 -74.8,-9.09 -122.31,-2.52l0 0zm730.29 80.86c-36.89,25.77 -69.23,48.51 -71.26,50.04 -3.54,3.03 103.1,77.32 120.28,83.89 5.05,2.02 145.04,-96.03 148.07,-103.6 0.51,-2.53 -22.23,-18.2 -51.55,-35.38 -29.32,-17.19 -55.59,-34.88 -59.13,-38.92 -3.53,-4.04 -9.09,-6.56 -12.64,-5.05 -3.53,1.52 -36.89,23.25 -73.79,49.03zm-946.59 12.64c-54.08,52.56 -78.84,121.29 -63.18,176.38 3.54,12.64 8.59,22.74 11.13,22.74 6.56,0 150.61,-73.29 163.24,-82.88 9.09,-7.08 9.59,-7.58 1.01,-8.1 -6.06,0 -13.15,-8.58 -20.22,-24.25 -9.61,-20.22 -11.12,-32.86 -11.12,-82.38l0 -58.62 -24.76 13.14c-13.15,7.07 -38.41,26.78 -56.1,43.97l0 0zm426.04 51.55c-70.25,46.49 -147.58,93.5 -171.83,104.61 -24.26,11.13 -43.46,21.73 -42.96,23.25 3.54,11.12 106.65,83.39 125.84,87.93 21.23,5.56 111.19,-45.48 253.2,-143.53 71.77,-50.02 131.41,-91.47 132.93,-92.99 1.51,-1.51 -11.63,-7.07 -29.32,-13.14 -17.69,-6.06 -53.58,-19.71 -79.85,-30.84 -26.28,-11.12 -51.05,-20.21 -54.08,-20.21 -3.54,0 -63.68,37.9 -133.93,84.9l-0.01 0zm336.59 65.19c-83.38,60.14 -193.56,131.41 -240.56,155.66 -27.29,13.65 -49.52,26.79 -49.52,28.3 0,6.06 99.56,9.09 133.93,4.55 91.98,-13.14 154.65,-37.91 300.2,-117.25l46.99 -25.77 -69.73 -36.39c-38.92,-20.22 -72.78,-37.4 -75.81,-37.4 -3.04,-0.51 -23.76,12.63 -45.49,28.29l0 0zm-675.2 122.81c-29.81,12.64 -54.58,24.26 -54.58,26.28 0,2.02 18.7,9.59 41.44,17.18 32.35,10.1 56.1,13.65 103.6,16.17 39.93,1.52 62.16,0.51 62.16,-2.52 0,-3.03 -8.58,-11.12 -19.2,-18.2 -10.1,-7.57 -29.81,-24.76 -43.97,-38.91 -13.65,-14.16 -27.29,-24.76 -30.33,-24.26 -2.52,1.01 -29.3,11.63 -59.13,24.26l0 0z"/>
   </g>
  </g>
 </g>
</svg>
