<?xml version="1.0" encoding="UTF-8"?>
<!DOCTYPE svg PUBLIC "-//W3C//DTD SVG 1.1//EN" "http://www.w3.org/Graphics/SVG/1.1/DTD/svg11.dtd">
<!-- Creator: CorelDRAW 2021 (64-Bit) -->
<svg xmlns="http://www.w3.org/2000/svg" xml:space="preserve" width="31.75mm" height="31.75mm" version="1.1" style="shape-rendering:geometricPrecision; text-rendering:geometricPrecision; image-rendering:optimizeQuality; fill-rule:evenodd; clip-rule:evenodd"
viewBox="0 0 513.57 513.57"
 xmlns:xlink="http://www.w3.org/1999/xlink"
 xmlns:xodm="http://www.corel.com/coreldraw/odm/2003">
 <g id="Layer_x0020_1">
  <metadata id="CorelCorpID_0Corel-Layer"/>
  <path d="M497.62 156.3c-4.02,17.26 -9.82,8.75 -0.46,20.66 2.47,3.14 2.57,3.78 5.77,5.92 0,-5.16 0.21,-9.49 -0.56,-14.32 -0.84,-5.25 -2.29,-8.23 -2.63,-12.26l-2.13 0zm6.38 60.61l-14.25 22.97c-5.39,8.07 -10.36,15.04 -15.52,22.76 2.45,4.64 7.06,16.52 10.63,19.14 15.15,-28.63 19.14,-32.57 19.14,-64.86zm-3.19 139.29c0,-17.93 -3.71,-27.97 -9.87,-42.23 -1.59,-3.69 -4.19,-9.51 -5.02,-13.06 -3.5,2.57 -4.85,7.97 -7.23,11.91 -9.86,16.32 -6.77,9.8 -2.57,23.4 3.56,11.51 2.06,24.06 -1.21,37.88 3.65,4.58 11.85,12.67 15.47,16.58 4.09,-8.18 10.43,-22.76 10.43,-34.49zm-11.7 -213.72c-4.91,-0.11 -3.56,-1.06 -7.44,-1.06 -12.99,0 -23.06,11.54 -27.65,20.2 28.52,0 14.99,1.73 24.46,4.25 1.78,-7.62 8.86,-15.77 10.63,-23.39zm-23.39 194.58c-1.22,5.24 -7.05,21.99 2.13,28.71 0.53,-6.33 2.27,-14.18 0.3,-22.62 -0.48,-2.03 -0.31,-1.61 -0.97,-3.28l-1.06 -2.14c-0.07,-0.15 -0.25,-0.45 -0.4,-0.67zm22.33 -156.3l-2.13 0c-0.83,3.57 -2.27,5.8 -4.05,8.71l-20.62 32.55c-5.71,8.62 -3.93,5.1 0.61,17.89 1.26,3.53 2.46,7.06 3.86,9.97 4.46,-2.99 32.49,-45.58 32.64,-51.17 0.17,-6.3 -9.06,-13.25 -10.31,-17.94zm-9.57 108.46l-10.63 -17.01 -10.79 14.73c-0.69,0.94 -1.06,1.51 -1.77,2.49l-2.33 2.98c2.42,3.62 9.54,12.94 10.63,17.01l14.88 -20.2zm-4.25 -115.9c-21,-1.75 -25.52,-4.72 -25.52,14.89 0,7.47 1.62,10.91 2.13,17.01 3.34,-2.24 20.88,-27.16 23.39,-31.9zm-37.22 164.81l0 7.44c0,9.76 6.29,28.71 21.26,28.71 10.57,0 -11.99,-5.49 -3.43,-40.64 3.98,-16.35 6.96,-8.74 -0.63,-21.22 -1.6,-2.64 -4.77,-7.65 -5.51,-10.44 -3.42,2.51 -5.96,10.92 -7.59,15.8 -1.84,5.5 -4.1,12.8 -4.1,20.35zm13.82 -98.89c-3.93,2.63 -14.89,20.04 -14.89,20.2 0,4.26 6.47,15.04 8.51,18.08l12.83 -17.06c2.28,-4.69 -5.11,-15.44 -6.45,-21.22zm-11.7 -57.42c-5.42,3.97 -10.93,18.02 -12.58,24.63 -3.21,12.83 -1.89,19.8 0.88,31.72 3.29,-2.2 15.66,-18.49 15.63,-22.16 -0.01,-0.93 -1.37,-5.98 -1.74,-7.68l-2.2 -26.52zm-10.63 87.19c-0.46,5.5 -4.39,9.86 -6.75,14.51 -10.55,20.79 -15.58,34.63 -15.58,58.85 0,23.65 8.48,49.06 27,60.19 7.1,4.26 13.12,5.82 21.91,7.86 22.32,3.61 27.84,-8.14 30.54,-12.45 -6.79,-6.6 -13.22,-14.09 -16.95,-16.92 -5.33,2.28 -18.73,11.4 -34.66,-13.36 -15.18,-23.6 -8.78,-53.46 3.08,-76.36 1.93,-3.72 2.56,-3.75 0.23,-7.65 -2.4,-4.02 -5.77,-12.44 -8.83,-14.68zm-91.45 196.71l5.24 2.21c8.66,2.31 16.8,0.47 23.47,-0.08 -2.74,-3.74 -7.8,-4.56 -13.06,-5.09 -5.58,-0.56 -11.15,1.92 -15.65,2.96zm-11.69 6.38c-1.56,0 -22.79,11.55 -24.46,13.82 7.3,1.7 16.76,6.98 24.31,9.71 19.75,7.16 47.96,7.47 66.15,-4.91 -3.82,-4.33 -12.47,-12.55 -17.09,-16.5 -21.43,11.34 -48.28,-2.13 -48.91,-2.13zm21.27 -19.14c9.44,0 13.73,0.12 21.64,5.01 5.39,3.33 6,6.14 6,-2.89 0,-9.52 -18.03,-18.07 -28.71,-18.07 -11.99,0 -15.06,-0.12 -27,3.84 -5.22,1.73 -14.04,4.38 -16.6,7.86 7.63,2.04 15.22,10.46 19.65,9.93 4.18,-0.5 12.78,-5.67 25.01,-5.67zm-37.22 10.63c-4.08,-1.09 -13.39,-8.21 -17.01,-10.63l-9.77 7.24c-3.19,2.17 -8.45,4.94 -10.43,7.64l17.01 10.63c1.62,-1.41 0.43,-0.43 2.48,-1.77l17.72 -13.12zm25.52 -38.28c13.4,0 23.69,3.01 32.12,8.29 25.6,16.03 16.95,29.11 13.68,34.52 5.33,4.35 12.23,12.33 18.27,17.29 1.89,-1.51 7.23,-6.16 9.8,-12.13 2.35,-5.44 2.06,-11.97 1.62,-18.2 -0.92,-13.06 -7.87,-26.88 -22.1,-36.38 -17.91,-11.97 -34.83,-12.53 -57.65,-12.53 -22.97,0 -55.89,21.85 -61.67,22.33 2.53,3.46 9.9,5.81 14.03,8.39 5.99,3.75 4.98,1.27 14.7,-3.06 10.68,-4.76 21.72,-8.52 37.2,-8.52zm-57.42 19.14c-18.76,-12.57 -17.71,-8.74 -28.28,-1.7 -3.99,2.66 -7.51,4.37 -10,8.08 3.25,0.76 7.93,2.92 10.8,4.09 3.77,1.54 6.64,4.2 10.42,2.36l17.06 -12.83zm4.25 39.34l-19.13 -9.59 -33.82 22.56c-3.94,2.38 -9.34,3.73 -11.91,7.23 33.32,0 33.9,-3.54 58.48,-15.95 3.19,-1.61 4.33,-1.45 6.38,-4.25zm-43.6 -56.36c-15.08,-3.51 -29.89,-4.24 -45.02,3.9 -3.24,1.74 -9.59,5.41 -11.34,7.8 7.51,0 12.05,0.28 18.17,0.97 3.89,0.44 5,0.49 8.35,1.23 12.09,2.64 7.37,3.03 19.41,-5.17 3.78,-2.57 8.05,-5.18 10.42,-8.72zm11.7 38.28l-19.14 -7.56c-4.03,-1.28 -10.43,3.85 -16.6,7.98 -5.71,3.82 -10.19,6.87 -15.93,10.66 -3.05,2.01 -5.1,2.86 -8.09,4.67 -3.12,1.89 -5.52,3.56 -9.37,4.46l0 2.13c4.61,1.23 11.11,9.79 17.16,10.3 7.01,0.58 35.65,-20.64 43.65,-26.04 3.21,-2.17 6.25,-3.51 8.31,-6.58zm-44.66 -14.89c-3.32,-0.27 -26.14,-4.76 -30.87,-0.03 -4.02,4.02 -1.34,19.72 -1.03,23.43 4.74,-2.51 29.66,-20.05 31.9,-23.39zm-34.03 41.47c-3.78,0 -10.33,4.25 -14.89,5.32l0 2.13c9.2,0.77 5.3,3.19 26.58,3.19 -1,-1.49 -10.87,-10.63 -11.7,-10.63zm-5.32 -13.82c-2.46,-9.2 -4.25,4.3 -4.25,-24.46 -9.19,4.86 -21.59,17.79 -20.2,26.58l1.24 8.48c7.44,-1.75 15.59,-8.83 23.21,-10.6zm247.13 -46.89c16.09,33.82 -6.62,59.01 34.07,18.25 44.92,-44.99 17.02,-21.15 -15.83,-37.75 -7.76,-3.92 -22.96,9.58 -18.24,19.5zm7.59 -180.65c0.04,-1.21 -3.26,-11.27 -4.03,-14.65 -5.98,-26.37 2.37,-50.94 22.3,-67.51 3.1,-2.58 2.61,-2.6 4.25,-6.38 7.04,-16.22 21.79,-34.53 41.75,-30.64 4.82,0.94 4.08,1.84 8.5,2.21 1.02,-12.25 7.44,-20.53 7.44,-49.97 0,-22.01 -7.86,-36.7 -16.79,-50.2 -4.38,-6.62 -10.84,-12.27 -17.66,-16.36 -21.26,-12.73 -42.82,-9.31 -57.45,11.89 -7,10.14 -13.39,22.35 -14.42,37.71 -1.36,20.28 2.96,43.31 17.76,57.67 24.54,23.8 48.14,-8.35 48.14,-33.26l0 -10.63c0,-13 -7.13,-31.9 -19.14,-31.9 -14.38,0 -20.2,13.01 -20.2,28.71 0,8.55 3.59,18.19 9.57,23.39 9.02,-4.77 9.57,-14.5 9.57,-24.46 3.24,0.07 3.88,0.48 6.38,1.06 0,9.17 0.52,32.96 -13.82,32.96 -28.88,0 -29.52,-72.3 5.32,-72.3 11.03,0 18.86,6.81 24.16,13.06 16.23,19.12 13.36,54.55 -0.44,73.4 -3.17,4.33 -6.77,8.1 -10.69,11.64 -5.8,5.22 -13.96,6.11 -22.6,6.11 -27.23,0 -44.66,-34.31 -44.66,-62.73 0,-22.46 5.36,-40 15.72,-55.52 6.43,-9.64 24.18,-24.22 39.57,-24.22 15,0 22.86,3.27 35.12,9.54 22.7,11.61 36.12,49.39 36.12,77.65 0,12.52 -0.05,27 -2.97,38.5 -1.05,4.12 -4.72,15.47 -3.78,18.17 0.77,2.22 2.32,3.46 3.75,6.94 9.57,23.22 2.21,37.57 3.08,47.89 1.18,14.03 3.11,5.77 3.11,35.24 0,15.89 -6.58,30.91 -13.85,43.56 -9.54,16.59 -9.47,7.96 -1.47,27.06 10.65,25.42 16.65,57.18 6.41,81.77 -2.07,4.96 -6.05,11.32 -11.35,18.5 -2.32,3.14 -6.17,7.39 -11.03,9.53 4.49,7.83 -24.48,35.74 -29.55,40.8 -6.64,6.63 -27.66,28.57 -37.58,27.43 -1.74,5.52 -7.08,8.68 -9.28,10.29 -4.85,3.57 -9.6,6.69 -14.04,9.07 -20.54,10.99 -47.63,9.32 -71.09,2.46 -7.42,-2.17 -26,-12.08 -31.51,-12.08 -2.27,0 -9.23,5.98 -11.73,7.41 -3.71,2.13 -8.98,4.69 -12.86,6.28 -17.08,6.99 -28.88,7.56 -46.85,7.58l-0.86 0c-7.74,0 -11.67,-2.21 -17.3,-2.99 -6.73,-0.93 -30.14,6.44 -51.05,-4.17 -2.61,-1.32 -2.15,-1.6 -4.01,-2.46 -3.1,-1.43 -29.75,6.42 -38.22,6.42 -30.41,0 -54.22,-1.01 -77.85,-16.78 -14.25,-9.51 -28.48,-28.82 -28.48,-47.02l0 -7.44c0,-30.4 39.84,-54.37 72.3,-54.37l7.44 -0.92c28.42,0 62.73,17.43 62.73,44.66 0,17.45 -4.18,23.36 -17.75,33.29 -14.1,10.32 -27.96,11.37 -46.05,11.37 -17.25,0 -40.4,-16.85 -40.4,-34.03 0,-36.51 72.3,-35.03 72.3,-6.38 0,5.29 -6.45,10.62 -11.28,12.12 -6.41,1.99 -13.65,1.71 -21.68,1.71 -0.58,-2.5 -0.99,-3.14 -1.06,-6.38 9.96,0 19.68,-0.55 24.46,-9.57 -12.37,-14.23 -52.1,-12.24 -52.1,7.44l0 3.19c0,12.01 18.9,19.14 31.9,19.14l12.76 0c15.95,0 39.34,-13.61 39.34,-28.71 0,-22.23 -23.24,-31.75 -40.85,-35.71 -41,-9.23 -82.5,19.08 -82.5,43.15 0,10.89 3.48,19.59 7.47,26.55 2,3.47 4.63,6.5 7.25,9.76 12.61,15.68 38.24,25.36 61.83,25.36 9.17,0 17.04,-0.98 25.23,-2.42 6.85,-1.2 15.42,-4.43 22.62,-5.03 -0.86,-10.28 -7.62,-16.69 3.61,-31.48 5.97,-7.87 14.87,-14.59 24.21,-18.32 7.07,-2.82 10.66,-10.99 23.2,-19.33 12.79,-8.5 33.82,-11.31 50.44,-7.87 11.15,2.31 13.59,4.24 16.77,3.62 16.65,-8 29.46,-15.47 41.68,-22.82 19.41,-11.66 38.43,-21.95 59.6,-43.06 19.67,-19.62 31.76,-40.06 44.34,-60.43 8.03,-13 15.82,-26.43 22.76,-42.74zm-95.94 146.63c29.6,-5.6 15.7,8.28 42.21,-18.24 2.34,-2.34 0.55,-5.68 -3.49,-8.53 -5.08,-3.59 -36.42,5.38 -38.73,26.77zm-0.34 -11.55c-15.26,9.18 -21.75,15.74 -28.39,20.58 1.9,-0.55 4.51,-1.66 12.39,-4.34 9.5,-3.22 14.21,-1.27 15.26,-10.04l0.74 -6.2zm78.86 -80.47c1.14,-3.66 2.39,-7.27 3.68,-10.8 -5.44,7.73 -14.6,18.94 -23.9,35.42 2.45,-0.25 4.9,-0.49 7.35,-0.74 11.01,-1.11 8.92,-11.25 12.87,-23.88zm-33.27 58.97c2.68,3.63 5.91,5.87 8.06,3.71 21.29,-21.29 15.79,-10.82 19.13,-37.46 -21.63,1.87 -32.35,26.75 -27.19,33.74zm44.84 47.48c2.41,-3.13 4.02,-6.74 3.03,-8.65 -3.31,-6.36 -8.46,-14 -12.52,-22.54 -3.83,-8.07 -6.62,-17.01 -8.04,-24.39 -18.91,23.31 16.04,57.52 17.53,55.58zm-59.41 -14.18c8.15,0.71 16.51,3.54 24.2,7.33 6.94,3.41 18.49,12.9 22.7,14.4 2.53,0.9 5.38,-1.29 8.16,-3.64 2.88,-2.44 -32.47,-36.1 -55.06,-18.1z"/>
 </g>
</svg>
