<?xml version="1.0" encoding="UTF-8"?>
<!DOCTYPE svg PUBLIC "-//W3C//DTD SVG 1.1//EN" "http://www.w3.org/Graphics/SVG/1.1/DTD/svg11.dtd">
<!-- Creator: CorelDRAW 2021 (64-Bit) -->
<svg xmlns="http://www.w3.org/2000/svg" xml:space="preserve" width="53.1596mm" height="8.0433mm" version="1.1" style="shape-rendering:geometricPrecision; text-rendering:geometricPrecision; image-rendering:optimizeQuality; fill-rule:evenodd; clip-rule:evenodd"
viewBox="0 0 5152 779.52"
 xmlns:xlink="http://www.w3.org/1999/xlink"
 xmlns:xodm="http://www.corel.com/coreldraw/odm/2003">
 <g id="Layer_x0020_1">
  <metadata id="CorelCorpID_0Corel-Layer"/>
  <g id="_3025645885936">
   <g>
    <path d="M4802.89 771.37c72.53,-12.23 177.12,-61.15 233.63,-110.07 47.65,-40.91 95.31,-117.66 109.64,-177.12 5.9,-23.19 6.75,-39.64 5.06,-70.85 -3.37,-53.98 -10.96,-81.39 -40.91,-142.54 -23.19,-47.23 -28.68,-55.24 -66.2,-93.19 -78.02,-78.86 -177.12,-124.83 -315.44,-146.33 -57.35,-8.86 -169.95,-12.23 -234.05,-7.17 -48.5,4.22 -72.96,9.27 -172.91,36.69l-27.83 7.59 -16.86 -10.96c-26.99,-18.13 -68.32,-32.48 -111.34,-38.81 -52.29,-8.01 -137.9,-8.01 -171.64,0 -25.3,5.91 -28.68,5.91 -75.9,-5.06 -42.59,-9.7 -59.47,-11.39 -119.34,-11.39 -79.29,-0.42 -108.81,4.64 -193.57,32.05 -60.73,19.83 -102.9,40.49 -150.98,75.49 -18.98,13.5 -37.11,24.89 -40.48,24.89 -3.37,0 -23.2,-7.6 -43.86,-17.29 -111.75,-51.45 -186.4,-75.49 -266.1,-86.03 -115.13,-15.19 -221.39,-1.69 -291.82,36.68 -118.5,64.95 -180.5,160.68 -182.18,282.55 -0.84,47.24 6.33,78.02 28.68,122.3 69.16,137.06 193.14,218.87 367.74,241.64 124.83,16.45 245.01,3.8 367.74,-37.95 92.35,-31.62 119.76,-43.85 188.08,-84.34l60.73 -36.28 47.23 14.76c107.95,33.32 214.65,30.79 303.21,-7.59 56.51,-24.46 118.93,-73.8 145.07,-114.28 10.12,-15.6 16.86,-21.51 24.88,-22.35 27.83,-2.11 96.58,-45.12 131.57,-81.39 47.24,-49.77 61.15,-76.33 66.64,-128.2 3.37,-27.83 -5.49,-70 -16.87,-83.08 -6.33,-6.33 -4.64,-7.6 22.35,-15.6 76.76,-22.78 167.85,-37.96 245.86,-41.33 115.98,-4.63 215.92,22.78 315.02,86.03 37.95,24.04 58.61,42.59 90.25,80.55 49.76,59.88 76.33,126.51 77.17,192.73 0.42,41.75 -7.59,66.63 -35.01,108.38 -62.41,94.88 -180.91,161.09 -315.01,175.85 -103.32,11.8 -258.94,-29.95 -321.35,-86.03 -52.71,-47.24 -78.43,-107.54 -68.73,-159.83 5.9,-31.62 16.02,-47.23 50.18,-78.43 63.67,-57.35 148.44,-83.92 253.44,-78.86 119.77,5.49 205.37,59.46 204.11,128.2 -1.27,56.93 -43.86,93.19 -127.36,109.22 -33.74,6.75 -43.44,6.75 -75.49,2.53 -52.71,-7.59 -114.71,-40.06 -114.71,-59.88 0,-12.23 21.09,-34.16 41.32,-43.44 12.66,-5.48 32.48,-8.86 60.73,-10.12l41.75 -2.53 -1.26 -17.29 -1.27 -17.29 -50.6 0.42c-62.84,0 -89.83,7.59 -117.24,31.21 -32.48,28.68 -36.27,64.1 -10.97,101.21 24.04,35.42 70.86,58.2 141.7,70.01 47.23,7.59 71.27,7.59 112.6,-0.43 64.53,-12.23 121.45,-51.03 144.65,-98.26 15.6,-31.62 16.03,-78.43 1.27,-116.39 -21.51,-55.67 -83.5,-107.96 -158.15,-133.26 -35.84,-11.81 -49.76,-14.34 -91.09,-16.03 -120.19,-4.64 -216.34,28.25 -290.98,99.52 -44.28,42.18 -60.73,66.21 -66.63,99.52 -9.7,53.14 -1.69,121.45 18.55,156.46 16.87,29.09 45.55,63.67 71.7,85.61 46.38,38.38 134.1,75.06 210.85,87.29 51.45,8.44 144.65,7.6 200.74,-2.1l0 0zm-1792.71 -128.63c-86.45,-11.39 -177.96,-50.6 -225.61,-96.99 -42.18,-41.32 -60.31,-68.74 -79.29,-121.03 -14.33,-40.91 -16.86,-52.71 -16.86,-81.39 0,-90.67 58.61,-180.91 144.65,-222.25 84.35,-40.06 156.45,-51.87 249.65,-40.06 66.2,8.44 96.57,17.3 186.4,55.25 36.68,15.6 70.85,29.94 75.9,31.62 7.59,2.96 5.49,5.06 -16.86,16.45 -13.92,7.17 -48.5,26.15 -76.76,42.59l-51.03 29.94 -28.68 -13.06c-58.61,-26.57 -126.93,-37.54 -182.6,-29.52 -45.12,6.75 -64.53,13.92 -91.93,34.58 -54.83,41.75 -62,112.17 -17.29,174.58 16.45,22.78 63.67,58.2 99.1,74.23 51.03,23.19 93.2,31.21 164.05,30.36 96.15,-0.43 148.86,-13.5 242.91,-59.88l44.7 -22.35 24.46 16.02c13.92,8.44 38.8,21.93 55.67,29.95 32.05,14.76 35.01,19.39 14.76,23.61 -6.33,1.27 -26.57,10.97 -44.71,21.93 -96.99,57.35 -205.79,96.58 -312.49,113.02 -19.4,3.37 -108.38,-1.27 -158.15,-7.6l0 0zm740.12 -114.7c-13.92,-3.38 -27.83,-7.6 -31.22,-9.28 -3.79,-2.53 14.34,-17.71 59.88,-50.6 36.28,-25.73 67.9,-46.81 70.86,-46.81 2.53,0 17.71,3.79 32.89,8.01 30.36,9.27 91.51,16.45 148.86,18.13 20.66,0.84 37.11,2.53 37.11,4.22 0,2.1 -2.1,3.37 -4.64,3.37 -2.53,0 -15.6,7.59 -29.09,16.45 -86.88,59.46 -191.04,80.12 -284.66,56.51l0.01 0zm-210.86 -79.7c-62,-31.22 -62.41,-31.63 -39.64,-46.39 10.12,-6.33 37.11,-25.3 59.46,-42.59l41.32 -30.78 19.82 9.69c11.39,5.49 38.81,17.29 61.57,26.15 22.36,8.86 39.65,17.72 37.54,19.82 -8.01,8.01 -125.67,87.72 -129.47,87.72 -2.53,0 -25.29,-10.54 -50.6,-23.62l0 0.01zm-510.27 8.43c-33.75,-8.86 -77.6,-32.48 -100.79,-53.98 -29.1,-26.99 -35.85,-64.52 -17.29,-91.93 28.68,-42.59 111.75,-57.77 191.87,-35.42l35.85 9.7 -16.03 7.17c-38.37,16.02 -72.11,23.61 -104.58,23.61 -32.89,0 -33.31,0 -39.64,13.07 -8.86,16.45 -4.22,21.93 24.46,31.63 16.86,5.48 29.51,6.32 59.46,4.63 37.95,-2.53 108.38,-17.71 146.33,-31.21l19.4 -6.75 52.29 31.21c28.68,17.29 56.09,32.48 60.31,34.58 4.22,1.69 7.17,3.8 6.33,4.64 -0.84,0.84 -20.25,9.27 -43.02,18.98 -114.28,47.24 -198.63,59.47 -274.95,40.06l0 0zm941.26 -67.47c-26.15,-3.8 -50.61,-8.01 -54.41,-9.7 -5.06,-1.69 20.25,-21.51 89.83,-71.27 53.13,-37.95 99.52,-69.58 102.48,-70.85 14.33,-5.49 13.92,129.04 -0.43,145.49 -2.11,2.96 -59.04,12.23 -76.33,12.65 -7.59,0.43 -35.42,-2.53 -61.14,-6.32l0 0zm-584.92 -29.1c-2.95,-3.79 -25.29,-18.13 -49.34,-32.47 -24.04,-14.34 -43.01,-27.42 -42.59,-29.1 2.53,-6.32 119.35,-88.14 123.57,-86.45 9.7,3.8 103.74,67.06 102.05,68.74 -5.06,4.64 -123.56,85.61 -125.67,85.61 -1.69,0 -5.06,-2.95 -8.01,-6.33l0 0zm796.2 -37.11c2.1,-44.28 -5.9,-81.39 -20.66,-96.15 -4.64,-4.64 -8.01,-9.7 -6.76,-10.54 3.37,-3.37 134.11,-69.16 137.48,-69.16 7.17,0 14.33,38.38 11.8,61.99 -5.06,49.77 -48.07,109.65 -99.94,139.59 -12.66,7.17 -23.2,13.5 -23.62,13.5 -0.43,0 0.42,-17.72 1.69,-39.22l0 0zm-449.55 -0.42c-24.88,-10.13 -55.24,-21.52 -67.47,-25.73 -12.65,-3.79 -21.08,-8.85 -18.98,-10.53 1.69,-1.69 51.87,-36.69 111.34,-77.6 118.5,-81.39 191.87,-123.14 209.59,-118.5 13.07,3.37 53.14,28.68 72.53,45.97 8.01,7.17 19.4,16.02 25.3,19.82l10.54 6.75 -46.39 23.62c-25.72,13.07 -90.24,52.71 -143.38,88.98 -53.56,35.85 -99.52,65.37 -102.48,65.37 -2.95,0.42 -25.72,-8.01 -50.6,-18.13l-0.01 0zm-219.71 -113.87l-60.31 -30.78 43.86 -24.04c118.5,-64.52 169.11,-84.34 245.86,-95.31 28.68,-3.79 111.75,-1.26 111.75,3.8 0,1.26 -16.45,10.96 -36.68,21.51 -44.28,22.78 -110.92,64.94 -184.71,117.24 -30.36,21.51 -56.09,38.8 -57.35,38.8 -1.27,0 -29.52,-13.92 -62.41,-31.21l0 0zm587.87 -95.31c-11.81,-11.8 -28.26,-26.15 -36.69,-32.48 -8.86,-5.9 -14.76,-12.65 -13.07,-15.18 1.27,-2.53 20.66,-3.37 51.45,-1.69 36.68,1.69 57.35,4.64 83.49,13.07 19.4,6.33 35.01,12.65 35.01,14.33 -0.43,2.96 -86.45,41.33 -94.89,42.59 -2.53,0 -13.92,-9.27 -25.29,-20.66z"/>
    <path d="M554.13 773.06c72.53,-12.23 165.31,-51.45 208.33,-88.14 24.45,-21.51 53.56,-56.5 69.58,-84.34 20.25,-35.01 28.26,-103.32 18.56,-156.46 -5.9,-32.89 -21.51,-56.51 -66.63,-99.94 -74.64,-71.7 -170.38,-104.16 -293.52,-98.68 -43.85,2.1 -56.09,4.22 -92.35,16.86 -48.92,17.72 -79.7,37.11 -113.87,71.69 -27.83,28.68 -43.44,58.62 -50.18,97.42 -14.76,87.29 54.83,160.67 171.22,180.07 39.21,6.75 102.05,0.84 148.02,-13.07 99.52,-31.21 137.9,-108.8 79.28,-160.67 -26.99,-23.62 -54.4,-30.79 -116.81,-31.21l-50.6 0 -1.27 17.29 -1.26 17.29 41.74 2.53c28.26,1.26 48.08,4.64 60.73,10.12 20.25,9.27 41.33,31.21 41.33,43.44 0,20.25 -61.15,52.3 -114.28,59.46 -31.63,4.64 -41.33,4.23 -75.91,-2.1 -84.35,-16.45 -126.93,-53.14 -127.36,-110.07 -0.84,-68.32 85.19,-121.87 204.1,-127.36 78.86,-3.8 140.43,8.86 203.27,42.17 27.41,14.34 73.8,55.24 86.88,76.33 13.92,21.93 18.55,54.4 12.65,88.14 -8.43,52.71 -59.46,115.13 -117.66,144.22 -77.17,38.38 -199.47,61.99 -275.38,52.3 -45.12,-5.49 -126.94,-29.95 -164.05,-48.5 -80.13,-40.49 -152.24,-114.71 -175.01,-180.07 -21.52,-61.57 2.95,-161.95 55.66,-230.68 46.39,-59.88 96.15,-99.11 172.48,-134.96 51.04,-24.45 86.88,-35.42 145.92,-44.7 85.61,-13.92 227.31,0.84 347.07,36.69 26.99,8.01 28.68,9.27 22.35,15.6 -7.17,8.01 -19.4,51.44 -19.4,68.32 0.43,27.41 13.07,70 28.26,92.35 21.08,32.48 57.77,70.01 86.87,89.83 28.26,19.39 73.8,41.32 87.3,42.59 6.32,0.42 13.92,8.01 22.77,21.92 25.3,39.22 88.14,88.56 144.65,113.44 89.4,39.65 202,42.18 310.38,7.17l40.91 -13.49 45.55 26.99c73.37,43.85 81.81,48.07 125.67,65.36 167.84,66.63 297.72,85.61 446.59,65.79 175.01,-23.19 296.89,-103.32 366.89,-241.64 22.78,-45.12 28.68,-70.85 28.26,-118.93 -0.43,-119.77 -62.41,-219.71 -174.59,-281.28 -56.09,-30.79 -126.1,-47.24 -203.27,-47.24 -119.76,0 -199.89,20.25 -356.34,90.25 -24.04,10.54 -46.39,19.4 -50.19,19.4 -3.37,0 -18.55,-9.27 -34.15,-20.66 -62,-45.97 -123.57,-73.8 -215.92,-97.42 -43.44,-10.96 -63.26,-13.92 -115.55,-15.6 -59.04,-2.11 -67.47,-1.26 -126.51,10.96 -60.3,12.23 -64.1,12.66 -86.45,6.76 -29.94,-8.01 -115.13,-8.01 -171.64,0 -44.7,6.32 -84.35,19.82 -113.01,38.8l-16.45 10.96 -25.73 -7.17c-132.42,-36.68 -178.8,-43.01 -295.2,-39.21 -195.26,6.32 -343.7,61.57 -438.17,164.04 -26.14,28.26 -37.11,44.71 -57.34,85.62 -13.92,27.83 -28.26,61.99 -31.63,75.9 -10.54,39.64 -13.07,104.58 -4.64,136.21 14.76,57.77 55.25,125.24 102.06,170.37 37.53,35.42 117.23,80.55 185.13,103.74 60.3,20.67 185.97,28.26 261.89,15.19l0 0zm1371.41 -134.1c-93.2,-21.52 -172.06,-52.72 -254.3,-101.22 -17.29,-10.53 -39.64,-21.08 -49.34,-23.61l-16.87 -4.64 43.86 -22.35c24.04,-11.81 50.18,-26.57 57.77,-31.63l13.92 -10.12 40.49 20.24c98.25,48.5 151.39,62 247.54,62.41 52.3,0.43 69.59,-0.84 99.95,-8.43 116.81,-29.52 193.14,-101.64 193.14,-182.18 0,-30.78 -19.82,-67.47 -47.24,-88.55 -27.41,-20.67 -46.81,-27.83 -91.93,-34.59 -55.66,-8.01 -123.98,2.96 -182.6,29.52l-28.68 13.07 -43.01 -25.72c-23.62,-13.92 -57.78,-32.48 -75.49,-40.91 -17.72,-8.43 -32.48,-16.45 -32.48,-17.71 -0.42,-3.37 122.3,-53.57 169.95,-70.01 81.39,-27.82 187.24,-33.74 261.89,-13.92 118.08,30.79 188.08,90.67 221.4,189.77 26.56,78.44 -4.23,183.45 -75.49,256.41 -35.85,36.68 -73.38,59.87 -127.78,79.7 -52.3,19.39 -76.75,25.29 -125.67,29.94 -24.46,2.53 -51.03,5.49 -59.04,6.33 -31.62,3.79 -96.99,-2.11 -140,-11.81l0 0.01zm-640.17 -103.75c-63.67,-7.59 -108.8,-24.45 -164.89,-61.57 -15.6,-10.12 -30.35,-18.55 -32.89,-18.55 -2.53,0 -4.63,-1.27 -4.63,-3.37 0,-1.69 19.39,-3.8 43.44,-4.22 51.87,-1.69 117.23,-10.13 153.08,-20.25l25.3 -7.17 67.89 48.08c37.54,26.56 67.47,48.5 66.64,49.34 -5.49,5.9 -65.37,17.29 -111.76,21.51 -3.79,0 -22.77,-1.69 -42.17,-3.8l0 0zm205.37 -109.64c-34.15,-23.62 -61.99,-43.44 -61.14,-44.28 0.84,-0.43 19.39,-8.01 41.32,-16.87 21.93,-8.85 49.34,-20.24 60.73,-25.72l20.66 -10.12 32.05 24.45c17.72,13.5 44.28,32.9 59.04,42.59 23.62,16.03 25.72,18.98 20.25,24.46 -11.39,11.39 -93.62,51.87 -102.06,50.61 -4.63,-0.84 -36.68,-21.09 -70.85,-45.12l0 0zm511.54 35.85c-52.29,-7.17 -72.96,-12.66 -144.65,-40.91 -48.08,-18.98 -64.1,-28.68 -47.65,-28.68 2.96,0 29.94,-14.76 59.88,-32.48l54.4 -32.89 33.74 11.39c95.73,32.05 182.6,37.11 212.96,12.65 9.28,-7.59 9.28,-8.01 2.54,-21.08 -6.76,-13.5 -7.17,-13.5 -40.91,-13.5 -26.99,0 -42.18,-2.53 -73.8,-13.49 -21.93,-7.17 -39.64,-14.76 -39.64,-16.03 0,-5.48 53.13,-18.13 84.76,-20.24 103.74,-6.33 166.15,40.91 140.85,107.11 -17.29,45.12 -106.27,90.25 -185.55,93.62 -7.17,0.43 -32.48,-2.1 -56.94,-5.48zm-918.07 -70.01c-18.13,-2.95 -35,-6.75 -37.95,-8.86 -2.53,-2.1 -8.01,-17.29 -11.8,-33.74 -6.75,-26.56 -6.75,-34.15 -2.11,-71.69 4.22,-31.62 7.17,-41.32 11.39,-39.64 2.96,1.26 49.34,33.31 102.48,70.85 109.64,77.17 106.27,70.43 40.06,80.97 -48.92,7.59 -62.41,7.59 -102.06,2.1l0 0zm609.38 -67.47c-30.78,-21.51 -57.77,-40.48 -59.46,-41.75 -2.96,-2.53 86.03,-64.52 100.37,-70 4.22,-1.69 121.03,80.13 123.56,86.45 0.43,2.11 -18.55,15.19 -43.01,29.52 -24.46,14.34 -46.38,29.1 -49.34,32.48 -2.95,3.37 -7.59,5.48 -10.54,4.22 -2.95,-1.27 -30.78,-19.4 -61.57,-40.91zm-789.86 -10.54c-45.12,-43.85 -65.79,-101.21 -52.72,-147.18 2.96,-10.54 7.17,-18.98 9.28,-18.98 5.48,0 125.67,61.15 136.21,69.16 7.59,5.91 8.01,6.33 0.84,6.76 -5.06,0 -10.97,7.16 -16.87,20.24 -8.01,16.87 -9.27,27.42 -9.27,68.74l0 48.91 -20.66 -10.96c-10.97,-5.9 -32.05,-22.35 -46.81,-36.69l0 0zm355.5 -43.01c-58.61,-38.8 -123.14,-78.02 -143.38,-87.29 -20.25,-9.28 -36.27,-18.13 -35.85,-19.4 2.96,-9.27 88.99,-69.59 105.01,-73.37 17.72,-4.64 92.78,37.95 211.28,119.77 59.88,41.74 109.65,76.32 110.92,77.59 1.26,1.26 -9.7,5.9 -24.46,10.96 -14.76,5.06 -44.71,16.45 -66.63,25.73 -21.93,9.27 -42.59,16.86 -45.12,16.86 -2.96,0 -53.14,-31.62 -111.75,-70.85l-0.01 0zm280.86 -54.4c-69.58,-50.18 -161.51,-109.65 -200.73,-129.89 -22.78,-11.39 -41.32,-22.36 -41.32,-23.62 0,-5.06 83.08,-7.59 111.75,-3.8 76.75,10.96 129.04,31.63 250.5,97.84l39.21 21.51 -58.19 30.36c-32.48,16.87 -60.73,31.21 -63.26,31.21 -2.54,0.43 -19.83,-10.53 -37.96,-23.61l0 0zm-563.41 -102.48c-24.88,-10.54 -45.54,-20.25 -45.54,-21.93 0,-1.69 15.6,-8.01 34.58,-14.33 26.99,-8.43 46.81,-11.39 86.45,-13.49 33.32,-1.27 51.87,-0.43 51.87,2.1 0,2.53 -7.16,9.27 -16.02,15.19 -8.43,6.32 -24.88,20.66 -36.69,32.47 -11.39,11.81 -22.78,20.66 -25.3,20.25 -2.1,-0.84 -24.45,-9.7 -49.34,-20.25l0 0z"/>
   </g>
  </g>
 </g>
</svg>
