<?xml version="1.0" encoding="UTF-8"?>
<!DOCTYPE svg PUBLIC "-//W3C//DTD SVG 1.1//EN" "http://www.w3.org/Graphics/SVG/1.1/DTD/svg11.dtd">
<!-- Creator: CorelDRAW 2021 (64-Bit) -->
<svg xmlns="http://www.w3.org/2000/svg" xml:space="preserve" width="31.75mm" height="31.75mm" version="1.1" style="shape-rendering:geometricPrecision; text-rendering:geometricPrecision; image-rendering:optimizeQuality; clip-rule:evenodd"
viewBox="0 0 378.42 378.42"
 xmlns:xlink="http://www.w3.org/1999/xlink"
 xmlns:xodm="http://www.corel.com/coreldraw/odm/2003">
 <g id="Layer_x0020_1">
  <metadata id="CorelCorpID_0Corel-Layer"/>
  <path d="M11.75 263.25c2.96,-12.72 7.23,-6.45 0.34,-15.23 -1.82,-2.31 -1.9,-2.78 -4.26,-4.36 0,3.81 -0.16,6.99 0.42,10.55 0.62,3.87 1.69,6.06 1.93,9.03l1.57 0zm-4.7 -44.66l10.5 -16.92c3.97,-5.95 7.63,-11.08 11.44,-16.77 -1.81,-3.42 -5.2,-12.17 -7.83,-14.1 -11.16,21.09 -14.1,24 -14.1,47.79zm2.35 -102.64c0,13.21 2.73,20.61 7.27,31.12 1.18,2.72 3.09,7.01 3.7,9.62 2.58,-1.89 3.57,-5.87 5.33,-8.78 7.26,-12.02 4.99,-7.22 1.89,-17.25 -2.62,-8.48 -1.52,-17.73 0.9,-27.91 -2.69,-3.37 -8.73,-9.33 -11.4,-12.22 -3.02,6.02 -7.69,16.77 -7.69,25.41zm8.62 157.48c3.62,0.08 2.63,0.78 5.49,0.78 9.57,0 16.99,-8.5 20.37,-14.89 -21.02,0 -11.05,-1.27 -18.02,-3.13 -1.31,5.61 -6.53,11.62 -7.84,17.24zm17.24 -143.38c0.9,-3.86 5.19,-16.2 -1.57,-21.15 -0.39,4.67 -1.67,10.45 -0.22,16.67 0.35,1.5 0.23,1.19 0.72,2.42l0.78 1.57c0.05,0.11 0.18,0.33 0.29,0.49zm-16.45 115.17l1.57 0c0.61,-2.63 1.67,-4.28 2.98,-6.42l15.2 -23.98c4.2,-6.35 2.9,-3.75 -0.45,-13.18 -0.92,-2.6 -1.81,-5.2 -2.84,-7.34 -3.29,2.2 -23.94,33.59 -24.05,37.71 -0.13,4.64 6.68,9.76 7.6,13.22zm7.05 -79.92l7.84 12.54 7.95 -10.85c0.51,-0.69 0.78,-1.11 1.3,-1.83l1.72 -2.2c-1.79,-2.67 -7.03,-9.53 -7.84,-12.54l-10.97 14.89zm3.13 85.4c15.47,1.29 18.8,3.48 18.8,-10.97 0,-5.51 -1.19,-8.04 -1.57,-12.54 -2.46,1.65 -15.39,20.01 -17.24,23.51zm27.42 -121.44l0 -5.49c0,-7.19 -4.64,-21.15 -15.67,-21.15 -7.79,0 8.83,4.04 2.53,29.95 -2.93,12.05 -5.13,6.44 0.46,15.64 1.18,1.94 3.51,5.64 4.06,7.69 2.52,-1.85 4.39,-8.05 5.59,-11.64 1.35,-4.05 3.02,-9.43 3.02,-15zm-10.18 72.86c2.9,-1.94 10.97,-14.77 10.97,-14.89 0,-3.14 -4.77,-11.08 -6.27,-13.32l-9.46 12.57c-1.68,3.46 3.76,11.38 4.75,15.63zm8.62 42.31c3.99,-2.93 8.05,-13.28 9.27,-18.15 2.36,-9.46 1.39,-14.59 -0.65,-23.37 -2.42,1.62 -11.54,13.63 -11.51,16.33 0.01,0.69 1.01,4.41 1.28,5.66l1.62 19.54zm7.83 -64.25c0.34,-4.05 3.23,-7.27 4.97,-10.69 7.77,-15.32 11.48,-25.52 11.48,-43.37 0,-17.42 -6.25,-36.15 -19.9,-44.35 -5.23,-3.14 -9.67,-4.28 -16.14,-5.79 -16.45,-2.66 -20.51,6 -22.5,9.17 5,4.86 9.74,10.38 12.49,12.47 3.93,-1.68 13.8,-8.4 25.54,9.84 11.18,17.39 6.47,39.39 -2.27,56.27 -1.42,2.74 -1.89,2.76 -0.17,5.64 1.77,2.96 4.26,9.17 6.5,10.82zm67.38 -144.94l-3.86 -1.63c-6.38,-1.7 -12.38,-0.35 -17.3,0.06 2.02,2.75 5.75,3.36 9.62,3.75 4.11,0.41 8.21,-1.41 11.53,-2.18zm8.62 -4.7c1.15,0 16.79,-8.51 18.02,-10.19 -5.38,-1.25 -12.35,-5.14 -17.91,-7.16 -14.55,-5.27 -35.34,-5.5 -48.74,3.62 2.82,3.19 9.19,9.25 12.59,12.15 15.79,-8.36 35.57,1.57 36.04,1.57zm-15.67 14.1c-6.95,0 -10.11,-0.09 -15.95,-3.69 -3.97,-2.46 -4.42,-4.53 -4.42,2.13 0,7.01 13.29,13.32 21.15,13.32 8.84,0 11.1,0.09 19.89,-2.83 3.85,-1.27 10.35,-3.22 12.23,-5.79 -5.63,-1.5 -11.21,-7.71 -14.48,-7.31 -3.08,0.37 -9.42,4.18 -18.43,4.18zm27.42 -7.84c3,0.8 9.87,6.05 12.54,7.84l7.2 -5.34c2.35,-1.6 6.23,-3.64 7.69,-5.63l-12.54 -7.84c-1.19,1.04 -0.31,0.31 -1.83,1.3l-13.06 9.67zm-18.8 28.21c-9.87,0 -17.46,-2.22 -23.67,-6.1 -18.87,-11.81 -12.49,-21.45 -10.08,-25.44 -3.93,-3.21 -9.01,-9.08 -13.46,-12.74 -1.39,1.11 -5.33,4.54 -7.22,8.94 -1.73,4.01 -1.52,8.82 -1.2,13.41 0.68,9.62 5.8,19.8 16.28,26.81 13.19,8.82 25.66,9.23 42.48,9.23 16.92,0 41.18,-16.1 45.44,-16.45 -1.87,-2.55 -7.3,-4.28 -10.34,-6.18 -4.41,-2.76 -3.67,-0.94 -10.83,2.25 -7.87,3.51 -16,6.28 -27.41,6.28zm42.31 -14.1c13.83,9.26 13.05,6.44 20.84,1.25 2.94,-1.96 5.53,-3.22 7.37,-5.95 -2.39,-0.56 -5.84,-2.15 -7.95,-3.02 -2.78,-1.14 -4.9,-3.1 -7.68,-1.74l-12.57 9.46zm-3.13 -28.99l14.1 7.06 24.92 -16.62c2.9,-1.75 6.89,-2.75 8.78,-5.33 -24.55,0 -24.98,2.61 -43.09,11.75 -2.35,1.19 -3.19,1.07 -4.7,3.13zm32.12 41.53c11.11,2.59 22.02,3.12 33.17,-2.87 2.38,-1.28 7.07,-3.99 8.36,-5.75 -5.54,0 -8.88,-0.21 -13.39,-0.71 -2.87,-0.33 -3.68,-0.36 -6.15,-0.9 -8.91,-1.95 -5.43,-2.23 -14.3,3.81 -2.78,1.9 -5.93,3.82 -7.68,6.42zm-8.62 -28.21l14.1 5.57c2.97,0.94 7.68,-2.84 12.23,-5.88 4.21,-2.82 7.51,-5.07 11.74,-7.85 2.24,-1.48 3.76,-2.1 5.96,-3.44 2.3,-1.39 4.07,-2.62 6.9,-3.28l0 -1.57c-3.4,-0.91 -8.19,-7.22 -12.64,-7.59 -5.16,-0.43 -26.27,15.21 -32.17,19.19 -2.36,1.6 -4.61,2.59 -6.12,4.85zm32.91 10.97c2.44,0.2 19.26,3.51 22.75,0.02 2.96,-2.96 0.99,-14.53 0.76,-17.26 -3.49,1.85 -21.86,14.78 -23.51,17.24zm25.07 -30.56c2.79,0 7.61,-3.13 10.97,-3.92l0 -1.57c-6.78,-0.56 -3.9,-2.35 -19.59,-2.35 0.74,1.1 8.01,7.83 8.62,7.83zm3.92 10.19c1.81,6.78 3.13,-3.17 3.13,18.02 6.77,-3.58 15.91,-13.11 14.89,-19.59l-0.92 -6.25c-5.48,1.29 -11.49,6.5 -17.1,7.81zm-182.1 34.55c-11.85,-24.92 4.88,-43.48 -25.1,-13.45 -33.1,33.15 -12.54,15.58 11.66,27.82 5.72,2.89 16.92,-7.06 13.44,-14.37zm-5.59 133.11c-0.03,0.89 2.4,8.3 2.97,10.79 4.4,19.43 -1.75,37.53 -16.43,49.74 -2.28,1.9 -1.92,1.92 -3.13,4.7 -5.19,11.95 -16.06,25.44 -30.76,22.58 -3.55,-0.69 -3,-1.35 -6.26,-1.63 -0.75,9.02 -5.49,15.13 -5.49,36.82 0,16.22 5.79,27.05 12.37,36.99 3.22,4.87 7.98,9.04 13.02,12.06 15.66,9.38 31.55,6.86 42.33,-8.76 5.16,-7.47 9.86,-16.47 10.63,-27.79 1,-14.94 -2.18,-31.92 -13.09,-42.5 -18.08,-17.54 -35.48,6.15 -35.48,24.51l0 7.83c0,9.58 5.25,23.51 14.1,23.51 10.6,0 14.89,-9.59 14.89,-21.15 0,-6.3 -2.64,-13.41 -7.05,-17.24 -6.65,3.52 -7.05,10.68 -7.05,18.02 -2.39,-0.05 -2.86,-0.35 -4.7,-0.78 0,-6.76 -0.38,-24.29 10.19,-24.29 21.28,0 21.75,53.28 -3.92,53.28 -8.13,0 -13.9,-5.02 -17.8,-9.62 -11.96,-14.09 -9.84,-40.19 0.32,-54.08 2.33,-3.19 4.99,-5.97 7.88,-8.57 4.27,-3.85 10.29,-4.5 16.65,-4.5 20.06,0 32.91,25.28 32.91,46.22 0,16.55 -3.95,29.47 -11.58,40.91 -4.74,7.11 -17.82,17.85 -29.16,17.85 -11.06,0 -16.84,-2.41 -25.88,-7.03 -16.72,-8.55 -26.61,-36.39 -26.61,-57.22 0,-9.23 0.04,-19.89 2.19,-28.37 0.77,-3.03 3.47,-11.4 2.78,-13.38 -0.57,-1.64 -1.71,-2.55 -2.77,-5.11 -7.05,-17.11 -1.63,-27.68 -2.27,-35.29 -0.87,-10.34 -2.29,-4.25 -2.29,-25.97 0,-11.71 4.85,-22.77 10.21,-32.1 7.03,-12.22 6.98,-5.87 1.09,-19.94 -7.84,-18.73 -12.27,-42.13 -4.72,-60.25 1.52,-3.66 4.46,-8.34 8.37,-13.63 1.71,-2.32 4.55,-5.45 8.13,-7.02 -3.31,-5.77 18.04,-26.34 21.77,-30.06 4.89,-4.88 20.38,-21.05 27.69,-20.21 1.28,-4.07 5.22,-6.39 6.84,-7.59 3.57,-2.63 7.07,-4.93 10.35,-6.68 15.14,-8.1 35.1,-6.87 52.38,-1.81 5.47,1.6 19.15,8.9 23.22,8.9 1.68,0 6.8,-4.41 8.64,-5.46 2.73,-1.57 6.62,-3.45 9.48,-4.62 12.59,-5.15 21.28,-5.57 34.52,-5.58l0.63 0c5.7,0 8.6,1.63 12.75,2.2 4.96,0.69 22.21,-4.75 37.61,3.07 1.92,0.98 1.59,1.18 2.96,1.81 2.28,1.05 21.92,-4.73 28.16,-4.73 22.41,0 39.95,0.75 57.37,12.36 10.5,7.01 20.98,21.24 20.98,34.64l0 5.49c0,22.4 -29.36,40.07 -53.28,40.07l-5.49 0.68c-20.94,0 -46.22,-12.84 -46.22,-32.91 0,-12.86 3.08,-17.21 13.08,-24.53 10.39,-7.6 20.6,-8.38 33.93,-8.38 12.71,0 29.77,12.42 29.77,25.07 0,26.9 -53.28,25.81 -53.28,4.7 0,-3.9 4.75,-7.82 8.31,-8.93 4.72,-1.46 10.06,-1.26 15.98,-1.26 0.43,1.85 0.73,2.31 0.78,4.7 -7.34,0 -14.5,0.41 -18.02,7.05 9.11,10.49 38.39,9.02 38.39,-5.48l0 -2.35c0,-8.85 -13.93,-14.1 -23.51,-14.1l-9.4 0c-11.75,0 -28.99,10.03 -28.99,21.15 0,16.38 17.13,23.39 30.1,26.31 30.21,6.8 60.79,-14.06 60.79,-31.8 0,-8.03 -2.56,-14.44 -5.51,-19.57 -1.47,-2.56 -3.41,-4.79 -5.34,-7.19 -9.29,-11.55 -28.17,-18.69 -45.56,-18.69 -6.76,0 -12.56,0.72 -18.59,1.78 -5.05,0.89 -11.36,3.26 -16.67,3.71 0.63,7.57 5.61,12.3 -2.66,23.2 -4.4,5.8 -10.96,10.75 -17.84,13.5 -5.21,2.08 -7.85,8.1 -17.1,14.24 -9.42,6.27 -24.92,8.33 -37.16,5.8 -8.22,-1.7 -10.02,-3.13 -12.36,-2.67 -12.27,5.9 -21.7,11.4 -30.71,16.81 -14.3,8.59 -28.32,16.17 -43.92,31.73 -14.5,14.46 -23.4,29.52 -32.67,44.53 -5.92,9.58 -11.66,19.47 -16.77,31.49zm70.69 -108.05c-21.81,4.13 -11.57,-6.1 -31.1,13.44 -1.72,1.72 -0.4,4.18 2.57,6.28 3.74,2.65 26.84,-3.96 28.54,-19.72zm0.25 8.51c11.24,-6.76 16.03,-11.6 20.92,-15.16 -1.4,0.4 -3.32,1.22 -9.13,3.19 -7,2.38 -10.47,0.94 -11.24,7.4l-0.55 4.57zm-58.11 59.29c-0.84,2.69 -1.76,5.36 -2.71,7.96 4.01,-5.7 10.76,-13.96 17.61,-26.1 -1.8,0.18 -3.61,0.36 -5.41,0.54 -8.11,0.82 -6.57,8.29 -9.48,17.6zm24.52 -43.45c-1.97,-2.68 -4.35,-4.32 -5.94,-2.74 -15.69,15.69 -11.64,7.97 -14.1,27.6 15.94,-1.37 23.84,-19.71 20.04,-24.86zm-33.04 -34.98c-1.77,2.31 -2.96,4.97 -2.23,6.38 2.44,4.69 6.23,10.31 9.22,16.61 2.82,5.94 4.88,12.53 5.92,17.97 13.93,-17.18 -11.82,-42.38 -12.92,-40.96zm43.78 10.45c-6.01,-0.52 -12.16,-2.61 -17.83,-5.4 -5.11,-2.52 -13.62,-9.51 -16.73,-10.61 -1.86,-0.66 -3.97,0.95 -6.01,2.68 -2.12,1.8 23.93,26.6 40.57,13.33z"/>
 </g>
</svg>
