<?xml version="1.0" encoding="UTF-8"?>
<!DOCTYPE svg PUBLIC "-//W3C//DTD SVG 1.1//EN" "http://www.w3.org/Graphics/SVG/1.1/DTD/svg11.dtd">
<!-- Creator: CorelDRAW 2021 (64-Bit) -->
<svg xmlns="http://www.w3.org/2000/svg" xml:space="preserve" width="8.0433mm" height="53.1596mm" version="1.1" style="shape-rendering:geometricPrecision; text-rendering:geometricPrecision; image-rendering:optimizeQuality; fill-rule:evenodd; clip-rule:evenodd"
viewBox="0 0 25.5 168.54"
 xmlns:xlink="http://www.w3.org/1999/xlink"
 xmlns:xodm="http://www.corel.com/coreldraw/odm/2003">
 <g id="Layer_x0020_1">
  <metadata id="CorelCorpID_0Corel-Layer"/>
  <g id="_3024226901616">
   <g>
    <path d="M25.23 157.12c-0.4,2.37 -2,5.79 -3.6,7.64 -1.34,1.56 -3.85,3.12 -5.79,3.59 -0.76,0.19 -1.3,0.22 -2.32,0.17 -1.77,-0.11 -2.66,-0.36 -4.66,-1.34 -1.55,-0.76 -1.81,-0.94 -3.05,-2.17 -2.58,-2.55 -4.08,-5.79 -4.79,-10.32 -0.29,-1.88 -0.4,-5.56 -0.23,-7.66 0.14,-1.59 0.3,-2.39 1.2,-5.66l0.25 -0.91 -0.36 -0.55c-0.59,-0.88 -1.06,-2.23 -1.27,-3.64 -0.26,-1.71 -0.26,-4.51 0,-5.62 0.19,-0.83 0.19,-0.94 -0.17,-2.48 -0.32,-1.39 -0.37,-1.95 -0.37,-3.9 -0.01,-2.59 0.15,-3.56 1.05,-6.33 0.65,-1.99 1.32,-3.37 2.47,-4.94 0.44,-0.62 0.81,-1.21 0.81,-1.32 0,-0.11 -0.25,-0.76 -0.57,-1.43 -1.68,-3.66 -2.47,-6.1 -2.81,-8.71 -0.5,-3.77 -0.06,-7.24 1.2,-9.55 2.12,-3.88 5.26,-5.9 9.24,-5.96 1.55,-0.03 2.55,0.21 4,0.94 4.48,2.26 7.16,6.32 7.91,12.03 0.54,4.08 0.12,8.02 -1.24,12.03 -1.03,3.02 -1.43,3.92 -2.76,6.15l-1.19 1.99 0.48 1.55c1.09,3.53 1.01,7.02 -0.25,9.92 -0.8,1.85 -2.41,3.89 -3.74,4.75 -0.51,0.33 -0.7,0.55 -0.73,0.81 -0.07,0.91 -1.48,3.16 -2.66,4.3 -1.63,1.55 -2.5,2 -4.19,2.18 -0.91,0.11 -2.29,-0.18 -2.72,-0.55 -0.21,-0.21 -0.25,-0.15 -0.51,0.73 -0.75,2.51 -1.24,5.49 -1.35,8.04 -0.15,3.79 0.75,7.06 2.81,10.31 0.79,1.24 1.39,1.92 2.64,2.95 1.96,1.63 4.14,2.5 6.3,2.52 1.37,0.01 2.18,-0.25 3.55,-1.14 3.1,-2.04 5.27,-5.92 5.75,-10.31 0.39,-3.38 -0.98,-8.47 -2.81,-10.51 -1.55,-1.72 -3.52,-2.57 -5.23,-2.25 -1.03,0.19 -1.55,0.52 -2.57,1.64 -1.88,2.08 -2.75,4.86 -2.58,8.29 0.18,3.92 1.95,6.72 4.19,6.68 1.86,-0.04 3.05,-1.43 3.57,-4.17 0.22,-1.1 0.22,-1.42 0.08,-2.47 -0.25,-1.72 -1.31,-3.75 -1.96,-3.75 -0.4,0 -1.12,0.69 -1.42,1.35 -0.18,0.41 -0.29,1.06 -0.33,1.99l-0.08 1.37 -0.57 -0.04 -0.57 -0.04 0.01 -1.66c0,-2.06 0.25,-2.94 1.02,-3.84 0.94,-1.06 2.1,-1.19 3.31,-0.36 1.16,0.79 1.9,2.32 2.29,4.64 0.25,1.55 0.25,2.33 -0.01,3.68 -0.4,2.11 -1.67,3.97 -3.21,4.73 -1.03,0.51 -2.57,0.52 -3.81,0.04 -1.82,-0.7 -3.53,-2.73 -4.36,-5.17 -0.39,-1.17 -0.47,-1.63 -0.52,-2.98 -0.15,-3.93 0.92,-7.08 3.26,-9.52 1.38,-1.45 2.17,-1.99 3.26,-2.18 1.74,-0.32 3.97,-0.06 5.12,0.61 0.95,0.55 2.08,1.49 2.8,2.35 1.26,1.52 2.46,4.39 2.86,6.9 0.28,1.68 0.25,4.73 -0.07,6.57l0 0zm-4.21 -58.65c-0.37,-2.83 -1.66,-5.82 -3.17,-7.38 -1.35,-1.38 -2.25,-1.97 -3.96,-2.59 -1.34,-0.47 -1.72,-0.55 -2.66,-0.55 -2.97,0 -5.92,1.92 -7.27,4.73 -1.31,2.76 -1.7,5.12 -1.31,8.17 0.28,2.17 0.57,3.16 1.81,6.1 0.51,1.2 0.98,2.32 1.03,2.48 0.1,0.25 0.17,0.18 0.54,-0.55 0.23,-0.46 0.86,-1.59 1.39,-2.51l0.98 -1.67 -0.43 -0.94c-0.87,-1.92 -1.23,-4.15 -0.97,-5.97 0.22,-1.48 0.46,-2.11 1.13,-3.01 1.37,-1.79 3.67,-2.03 5.71,-0.57 0.75,0.54 1.9,2.08 2.43,3.24 0.76,1.67 1.02,3.05 0.99,5.37 -0.01,3.15 -0.44,4.87 -1.96,7.95l-0.73 1.46 0.52 0.8c0.28,0.46 0.72,1.27 0.98,1.82 0.48,1.05 0.63,1.15 0.77,0.48 0.04,-0.21 0.36,-0.87 0.72,-1.46 1.88,-3.17 3.16,-6.73 3.7,-10.22 0.11,-0.63 -0.04,-3.55 -0.25,-5.17l0 0zm-3.75 24.21c-0.11,-0.46 -0.25,-0.91 -0.3,-1.02 -0.08,-0.12 -0.58,0.47 -1.66,1.96 -0.84,1.19 -1.53,2.22 -1.53,2.32 0,0.08 0.12,0.58 0.26,1.08 0.3,0.99 0.54,2.99 0.59,4.87 0.03,0.68 0.08,1.21 0.14,1.21 0.07,0 0.11,-0.07 0.11,-0.15 0,-0.08 0.25,-0.51 0.54,-0.95 1.95,-2.84 2.62,-6.25 1.85,-9.31l0 0zm-2.61 -6.9c-1.02,-2.03 -1.03,-2.04 -1.52,-1.3 -0.21,0.33 -0.83,1.21 -1.39,1.95l-1.01 1.35 0.32 0.65c0.18,0.37 0.57,1.27 0.86,2.01 0.29,0.73 0.58,1.3 0.65,1.23 0.26,-0.26 2.87,-4.11 2.87,-4.24 0,-0.08 -0.34,-0.83 -0.77,-1.66l0 0zm0.28 -16.69c-0.29,-1.1 -1.06,-2.54 -1.77,-3.3 -0.88,-0.95 -2.11,-1.17 -3.01,-0.57 -1.39,0.94 -1.89,3.66 -1.16,6.28l0.32 1.17 0.23 -0.52c0.52,-1.26 0.77,-2.36 0.77,-3.42 0,-1.08 0,-1.09 0.43,-1.3 0.54,-0.29 0.72,-0.14 1.03,0.8 0.18,0.55 0.21,0.97 0.15,1.95 -0.08,1.24 -0.58,3.55 -1.02,4.79l-0.22 0.63 1.02 1.71c0.57,0.94 1.06,1.83 1.13,1.97 0.06,0.14 0.12,0.23 0.15,0.21 0.03,-0.03 0.3,-0.66 0.62,-1.41 1.55,-3.74 1.95,-6.5 1.31,-8.99l0 0zm-2.21 30.79c-0.12,-0.86 -0.26,-1.66 -0.32,-1.78 -0.06,-0.17 -0.7,0.66 -2.33,2.94 -1.24,1.74 -2.28,3.26 -2.32,3.35 -0.18,0.47 4.22,0.46 4.76,-0.01 0.1,-0.07 0.4,-1.93 0.41,-2.5 0.01,-0.25 -0.08,-1.16 -0.21,-2l0 0zm-0.95 -19.14c-0.12,-0.1 -0.59,-0.83 -1.06,-1.61 -0.47,-0.79 -0.9,-1.41 -0.95,-1.39 -0.21,0.08 -2.88,3.9 -2.83,4.04 0.12,0.32 2.19,3.39 2.25,3.34 0.15,-0.17 2.8,-4.04 2.8,-4.11 0,-0.06 -0.1,-0.17 -0.21,-0.26l0 0zm-1.21 26.05c-1.45,0.07 -2.66,-0.19 -3.15,-0.68 -0.15,-0.15 -0.32,-0.26 -0.34,-0.22 -0.11,0.11 -2.26,4.39 -2.26,4.5 0,0.23 1.26,0.47 2.03,0.39 1.63,-0.17 3.59,-1.57 4.57,-3.27 0.23,-0.41 0.44,-0.76 0.44,-0.77 0,-0.01 -0.58,0.01 -1.28,0.06l0 0zm-0.01 -14.71c-0.33,-0.81 -0.7,-1.81 -0.84,-2.21 -0.12,-0.41 -0.29,-0.69 -0.34,-0.62 -0.06,0.06 -1.2,1.7 -2.54,3.64 -2.66,3.88 -4.03,6.28 -3.88,6.86 0.11,0.43 0.94,1.74 1.5,2.37 0.23,0.26 0.52,0.63 0.65,0.83l0.22 0.34 0.77 -1.52c0.43,-0.84 1.72,-2.95 2.91,-4.69 1.17,-1.75 2.14,-3.26 2.14,-3.35 0.01,-0.1 -0.26,-0.84 -0.59,-1.66l0 0zm-3.73 -7.19l-1.01 -1.97 -0.79 1.43c-2.11,3.88 -2.76,5.53 -3.12,8.04 -0.12,0.94 -0.04,3.66 0.12,3.66 0.04,0 0.36,-0.54 0.7,-1.2 0.75,-1.45 2.12,-3.63 3.84,-6.04 0.7,-0.99 1.27,-1.83 1.27,-1.88 0,-0.04 -0.46,-0.97 -1.02,-2.04l0 0zm-3.12 19.23c-0.39,-0.39 -0.86,-0.92 -1.06,-1.2 -0.19,-0.29 -0.41,-0.48 -0.5,-0.43 -0.08,0.04 -0.11,0.68 -0.06,1.68 0.06,1.2 0.15,1.88 0.43,2.73 0.21,0.63 0.41,1.14 0.47,1.14 0.1,-0.01 1.35,-2.83 1.39,-3.1 0,-0.08 -0.3,-0.46 -0.68,-0.83z"/>
    <path d="M25.29 18.13c-0.4,2.37 -1.68,5.41 -2.88,6.82 -0.7,0.8 -1.85,1.75 -2.76,2.28 -1.15,0.66 -3.38,0.92 -5.12,0.61 -1.08,-0.19 -1.85,-0.7 -3.27,-2.18 -2.35,-2.44 -3.41,-5.57 -3.23,-9.6 0.07,-1.43 0.14,-1.83 0.55,-3.02 0.58,-1.6 1.21,-2.61 2.35,-3.73 0.94,-0.91 1.92,-1.42 3.19,-1.64 2.86,-0.48 5.26,1.79 5.89,5.6 0.22,1.28 0.03,3.34 -0.43,4.84 -1.02,3.26 -3.56,4.51 -5.26,2.59 -0.77,-0.88 -1.01,-1.78 -1.02,-3.82l0 -1.66 0.57 -0.04 0.57 -0.04 0.08 1.37c0.04,0.92 0.15,1.57 0.33,1.99 0.3,0.66 1.02,1.35 1.42,1.35 0.66,0 1.71,-2 1.95,-3.74 0.15,-1.03 0.14,-1.35 -0.07,-2.48 -0.54,-2.76 -1.74,-4.15 -3.6,-4.17 -2.23,-0.03 -3.99,2.79 -4.17,6.68 -0.12,2.58 0.29,4.59 1.38,6.65 0.47,0.9 1.81,2.41 2.5,2.84 0.72,0.46 1.78,0.61 2.88,0.41 1.72,-0.28 3.77,-1.95 4.72,-3.85 1.26,-2.52 2.03,-6.53 1.71,-9.01 -0.18,-1.48 -0.98,-4.15 -1.59,-5.37 -1.32,-2.62 -3.75,-4.98 -5.89,-5.73 -2.01,-0.7 -5.3,0.1 -7.55,1.82 -1.96,1.52 -3.24,3.15 -4.41,5.64 -0.8,1.67 -1.16,2.84 -1.46,4.77 -0.46,2.8 0.03,7.44 1.2,11.35 0.26,0.88 0.3,0.94 0.51,0.73 0.26,-0.23 1.68,-0.63 2.23,-0.63 0.9,0.01 2.29,0.43 3.02,0.92 1.06,0.69 2.29,1.89 2.94,2.84 0.63,0.92 1.35,2.41 1.39,2.86 0.01,0.21 0.26,0.46 0.72,0.75 1.28,0.83 2.9,2.88 3.71,4.73 1.3,2.92 1.38,6.61 0.23,10.15l-0.44 1.34 0.88 1.49c1.43,2.4 1.57,2.68 2.14,4.11 2.18,5.49 2.8,9.74 2.15,14.61 -0.76,5.73 -3.38,9.71 -7.91,12 -1.48,0.75 -2.32,0.94 -3.89,0.92 -3.92,-0.01 -7.19,-2.04 -9.2,-5.71 -1.01,-1.83 -1.55,-4.13 -1.55,-6.65 0,-3.92 0.66,-6.54 2.95,-11.66 0.34,-0.79 0.63,-1.52 0.63,-1.64 0,-0.11 -0.3,-0.61 -0.68,-1.12 -1.5,-2.03 -2.41,-4.04 -3.19,-7.06 -0.36,-1.42 -0.46,-2.07 -0.51,-3.78 -0.07,-1.93 -0.04,-2.21 0.36,-4.14 0.4,-1.97 0.41,-2.1 0.22,-2.83 -0.26,-0.98 -0.26,-3.77 0,-5.62 0.21,-1.46 0.65,-2.76 1.27,-3.7l0.36 -0.54 -0.23 -0.84c-1.2,-4.33 -1.41,-5.85 -1.28,-9.66 0.21,-6.39 2.01,-11.24 5.37,-14.33 0.92,-0.86 1.46,-1.21 2.8,-1.88 0.91,-0.46 2.03,-0.92 2.48,-1.03 1.3,-0.34 3.42,-0.43 4.46,-0.15 1.89,0.48 4.1,1.81 5.57,3.34 1.16,1.23 2.64,3.84 3.39,6.06 0.68,1.97 0.92,6.08 0.5,8.57l0 0zm-4.39 44.87c-0.7,-3.05 -1.72,-5.63 -3.31,-8.32 -0.34,-0.57 -0.69,-1.3 -0.77,-1.61l-0.15 -0.55 -0.73 1.43c-0.39,0.79 -0.87,1.64 -1.03,1.89l-0.33 0.46 0.66 1.32c1.59,3.21 2.03,4.95 2.04,8.1 0.01,1.71 -0.03,2.28 -0.28,3.27 -0.97,3.82 -3.32,6.32 -5.96,6.32 -1.01,0 -2.21,-0.65 -2.9,-1.55 -0.68,-0.9 -0.91,-1.53 -1.13,-3.01 -0.26,-1.82 0.1,-4.06 0.97,-5.97l0.43 -0.94 -0.84 -1.41c-0.46,-0.77 -1.06,-1.89 -1.34,-2.47 -0.28,-0.58 -0.54,-1.06 -0.58,-1.06 -0.11,-0.01 -1.75,4 -2.29,5.56 -0.91,2.66 -1.1,6.13 -0.46,8.57 1.01,3.86 2.97,6.15 6.21,7.24 2.57,0.87 6,-0.14 8.39,-2.47 1.2,-1.17 1.96,-2.4 2.61,-4.18 0.63,-1.71 0.83,-2.51 0.98,-4.11 0.08,-0.8 0.18,-1.67 0.21,-1.93 0.12,-1.03 -0.07,-3.17 -0.39,-4.58l0 0zm-3.39 -20.94c-0.25,-2.08 -0.8,-3.56 -2.01,-5.39 -0.33,-0.51 -0.61,-0.99 -0.61,-1.08 0,-0.08 -0.04,-0.15 -0.11,-0.15 -0.06,0 -0.12,0.63 -0.14,1.42 -0.06,1.7 -0.33,3.84 -0.66,5.01l-0.23 0.83 1.57 2.22c0.87,1.23 1.59,2.21 1.61,2.18 0.19,-0.18 0.57,-2.14 0.7,-3.66 0,-0.12 -0.06,-0.74 -0.12,-1.38l0 0zm-3.59 6.72c-0.77,-1.12 -1.42,-2.03 -1.45,-2 -0.01,0.03 -0.26,0.63 -0.55,1.35 -0.29,0.72 -0.66,1.61 -0.84,1.99l-0.33 0.68 0.8 1.05c0.44,0.58 1.08,1.45 1.39,1.93 0.52,0.77 0.62,0.84 0.8,0.66 0.37,-0.37 1.7,-3.06 1.66,-3.34 -0.03,-0.15 -0.69,-1.2 -1.48,-2.32l0 0zm1.17 16.73c-0.23,-1.71 -0.41,-2.39 -1.34,-4.73 -0.62,-1.57 -0.94,-2.1 -0.94,-1.56 0,0.1 -0.48,0.98 -1.06,1.96l-1.08 1.78 0.37 1.1c1.05,3.13 1.21,5.97 0.41,6.97 -0.25,0.3 -0.26,0.3 -0.69,0.08 -0.44,-0.22 -0.44,-0.23 -0.44,-1.34 0,-0.88 -0.08,-1.38 -0.44,-2.41 -0.23,-0.72 -0.48,-1.3 -0.52,-1.3 -0.18,0 -0.59,1.74 -0.66,2.77 -0.21,3.39 1.34,5.44 3.5,4.61 1.48,-0.57 2.95,-3.48 3.06,-6.07 0.01,-0.23 -0.07,-1.06 -0.18,-1.86zm-2.29 -30.03c-0.1,-0.59 -0.22,-1.15 -0.29,-1.24 -0.07,-0.08 -0.57,-0.26 -1.1,-0.39 -0.87,-0.22 -1.12,-0.22 -2.35,-0.07 -1.03,0.14 -1.35,0.23 -1.3,0.37 0.04,0.1 1.09,1.61 2.32,3.35 2.52,3.59 2.3,3.48 2.65,1.31 0.25,-1.6 0.25,-2.04 0.07,-3.34l0 0zm-2.21 19.94c-0.7,-1.01 -1.32,-1.89 -1.37,-1.95 -0.08,-0.1 -2.11,2.81 -2.29,3.28 -0.06,0.14 2.62,3.96 2.83,4.04 0.07,0.01 0.5,-0.61 0.97,-1.41 0.47,-0.8 0.95,-1.52 1.06,-1.61 0.11,-0.1 0.18,-0.25 0.14,-0.34 -0.04,-0.1 -0.63,-1.01 -1.34,-2.01zm-0.34 -25.84c-1.43,-1.48 -3.31,-2.15 -4.81,-1.72 -0.34,0.1 -0.62,0.23 -0.62,0.3 0,0.18 2,4.11 2.26,4.46 0.19,0.25 0.21,0.26 0.22,0.03 0,-0.17 0.23,-0.36 0.66,-0.55 0.55,-0.26 0.9,-0.3 2.25,-0.3l1.6 0 -0.36 -0.68c-0.19,-0.36 -0.73,-1.05 -1.2,-1.53l0 -0zm-1.41 11.63c-1.27,-1.92 -2.55,-4.03 -2.86,-4.69 -0.3,-0.66 -0.59,-1.19 -0.63,-1.17 -0.3,0.1 -2.28,2.91 -2.4,3.44 -0.15,0.58 1.24,3.04 3.92,6.91 1.37,1.96 2.5,3.59 2.54,3.63 0.04,0.04 0.19,-0.32 0.36,-0.8 0.17,-0.48 0.54,-1.46 0.84,-2.18 0.3,-0.72 0.55,-1.39 0.55,-1.48 0,-0.1 -1.03,-1.74 -2.32,-3.66l0 -0zm-1.78 9.19c-1.64,-2.28 -3.59,-5.28 -4.25,-6.57 -0.37,-0.75 -0.73,-1.35 -0.77,-1.35 -0.17,0 -0.25,2.72 -0.12,3.66 0.36,2.51 1.03,4.22 3.2,8.19l0.7 1.28 0.99 -1.9c0.55,-1.06 1.02,-1.99 1.02,-2.07 0.01,-0.08 -0.34,-0.65 -0.77,-1.24l0 0zm-3.35 -18.43c-0.34,-0.81 -0.66,-1.49 -0.72,-1.49 -0.06,0 -0.26,0.51 -0.47,1.13 -0.28,0.88 -0.37,1.53 -0.44,2.83 -0.04,1.09 -0.01,1.7 0.07,1.7 0.08,0 0.3,-0.23 0.5,-0.52 0.21,-0.28 0.68,-0.81 1.06,-1.2 0.39,-0.37 0.68,-0.75 0.66,-0.83 -0.03,-0.07 -0.32,-0.8 -0.66,-1.61l0 0z"/>
   </g>
  </g>
 </g>
</svg>
