<?xml version="1.0" encoding="UTF-8"?>
<!DOCTYPE svg PUBLIC "-//W3C//DTD SVG 1.1//EN" "http://www.w3.org/Graphics/SVG/1.1/DTD/svg11.dtd">
<!-- Creator: CorelDRAW 2021 (64-Bit) -->
<svg xmlns="http://www.w3.org/2000/svg" xml:space="preserve" width="8.0433mm" height="53.1596mm" version="1.1" style="shape-rendering:geometricPrecision; text-rendering:geometricPrecision; image-rendering:optimizeQuality; fill-rule:evenodd; clip-rule:evenodd"
viewBox="0 0 27.75 183.37"
 xmlns:xlink="http://www.w3.org/1999/xlink"
 xmlns:xodm="http://www.corel.com/coreldraw/odm/2003">
 <g id="Layer_x0020_1">
  <metadata id="CorelCorpID_0Corel-Layer"/>
  <g id="_3024214314656">
   <g>
    <path d="M0.29 170.95c0.44,2.58 2.18,6.3 3.92,8.32 1.46,1.7 4.19,3.39 6.3,3.9 0.83,0.21 1.41,0.24 2.52,0.18 1.92,-0.12 2.9,-0.39 5.07,-1.46 1.68,-0.83 1.97,-1.02 3.32,-2.36 2.81,-2.78 4.44,-6.3 5.21,-11.23 0.32,-2.04 0.44,-6.05 0.26,-8.33 -0.15,-1.73 -0.33,-2.6 -1.31,-6.15l-0.27 -0.99 0.39 -0.6c0.65,-0.96 1.16,-2.43 1.38,-3.96 0.28,-1.86 0.28,-4.91 0,-6.11 -0.21,-0.9 -0.21,-1.02 0.18,-2.7 0.35,-1.52 0.41,-2.12 0.41,-4.25 0.01,-2.82 -0.17,-3.87 -1.14,-6.89 -0.71,-2.16 -1.44,-3.66 -2.69,-5.37 -0.48,-0.68 -0.89,-1.32 -0.89,-1.44 0,-0.12 0.27,-0.83 0.62,-1.56 1.83,-3.98 2.69,-6.63 3.06,-9.47 0.54,-4.1 0.06,-7.88 -1.31,-10.39 -2.31,-4.22 -5.72,-6.42 -10.06,-6.48 -1.68,-0.03 -2.78,0.23 -4.35,1.02 -4.88,2.46 -7.79,6.87 -8.6,13.09 -0.59,4.44 -0.14,8.72 1.35,13.09 1.13,3.29 1.56,4.26 3,6.69l1.29 2.16 -0.53 1.68c-1.19,3.84 -1.1,7.64 0.27,10.79 0.87,2.01 2.63,4.23 4.07,5.16 0.56,0.36 0.77,0.6 0.8,0.89 0.08,0.99 1.61,3.44 2.9,4.68 1.77,1.68 2.72,2.18 4.56,2.37 0.99,0.12 2.49,-0.2 2.96,-0.6 0.23,-0.22 0.27,-0.16 0.56,0.8 0.81,2.73 1.35,5.97 1.47,8.75 0.16,4.13 -0.81,7.69 -3.06,11.21 -0.86,1.35 -1.52,2.09 -2.87,3.21 -2.13,1.77 -4.5,2.72 -6.86,2.75 -1.49,0.02 -2.37,-0.27 -3.86,-1.25 -3.38,-2.22 -5.73,-6.44 -6.26,-11.21 -0.42,-3.68 1.07,-9.22 3.06,-11.44 1.68,-1.88 3.83,-2.79 5.69,-2.45 1.13,0.21 1.68,0.57 2.79,1.79 2.04,2.27 2.99,5.28 2.81,9.02 -0.2,4.26 -2.12,7.31 -4.56,7.26 -2.03,-0.04 -3.32,-1.56 -3.89,-4.53 -0.24,-1.2 -0.24,-1.55 -0.09,-2.69 0.27,-1.88 1.43,-4.08 2.13,-4.08 0.44,0 1.22,0.75 1.55,1.47 0.19,0.45 0.32,1.16 0.36,2.16l0.09 1.49 0.62 -0.04 0.62 -0.05 -0.01 -1.8c0,-2.24 -0.27,-3.2 -1.11,-4.17 -1.02,-1.16 -2.28,-1.29 -3.6,-0.39 -1.26,0.86 -2.07,2.52 -2.49,5.04 -0.27,1.68 -0.27,2.54 0.02,4.01 0.44,2.3 1.82,4.32 3.5,5.15 1.13,0.56 2.79,0.57 4.14,0.04 1.98,-0.77 3.84,-2.97 4.74,-5.63 0.42,-1.28 0.51,-1.77 0.57,-3.24 0.17,-4.28 -1.01,-7.7 -3.54,-10.36 -1.5,-1.58 -2.36,-2.16 -3.54,-2.37 -1.89,-0.35 -4.32,-0.06 -5.57,0.66 -1.04,0.6 -2.27,1.62 -3.05,2.55 -1.37,1.65 -2.67,4.77 -3.11,7.51 -0.3,1.83 -0.27,5.15 0.07,7.14l0 0zm4.58 -63.81c0.41,-3.08 1.8,-6.33 3.45,-8.03 1.47,-1.5 2.45,-2.15 4.31,-2.82 1.46,-0.51 1.88,-0.6 2.9,-0.6 3.23,0 6.44,2.09 7.91,5.15 1.43,3 1.85,5.57 1.43,8.89 -0.3,2.36 -0.62,3.44 -1.97,6.63 -0.56,1.31 -1.07,2.52 -1.13,2.7 -0.11,0.27 -0.18,0.2 -0.59,-0.6 -0.26,-0.5 -0.93,-1.73 -1.52,-2.73l-1.07 -1.82 0.46 -1.02c0.95,-2.09 1.34,-4.52 1.05,-6.5 -0.24,-1.61 -0.5,-2.3 -1.23,-3.27 -1.49,-1.95 -3.99,-2.21 -6.21,-0.62 -0.81,0.59 -2.07,2.27 -2.64,3.53 -0.83,1.82 -1.11,3.32 -1.08,5.84 0.02,3.42 0.48,5.3 2.13,8.65l0.8 1.59 -0.57 0.87c-0.3,0.5 -0.78,1.38 -1.07,1.98 -0.53,1.14 -0.69,1.25 -0.84,0.53 -0.05,-0.23 -0.39,-0.95 -0.78,-1.59 -2.04,-3.45 -3.44,-7.32 -4.02,-11.12 -0.12,-0.69 0.05,-3.86 0.27,-5.63l0 0zm4.08 26.34c0.12,-0.5 0.27,-0.99 0.33,-1.11 0.09,-0.14 0.63,0.51 1.8,2.13 0.92,1.29 1.67,2.42 1.67,2.52 0,0.09 -0.13,0.63 -0.29,1.17 -0.33,1.08 -0.59,3.26 -0.65,5.3 -0.03,0.74 -0.09,1.32 -0.15,1.32 -0.07,0 -0.12,-0.07 -0.12,-0.16 0,-0.09 -0.27,-0.56 -0.59,-1.04 -2.12,-3.09 -2.85,-6.8 -2.01,-10.13l0 0zm2.84 -7.51c1.11,-2.21 1.13,-2.22 1.65,-1.41 0.23,0.36 0.9,1.32 1.52,2.12l1.1 1.47 -0.34 0.71c-0.2,0.41 -0.62,1.38 -0.93,2.19 -0.32,0.8 -0.63,1.41 -0.71,1.34 -0.29,-0.28 -3.12,-4.47 -3.12,-4.61 0,-0.09 0.38,-0.9 0.84,-1.8l-0 0zm-0.3 -18.16c0.32,-1.2 1.16,-2.76 1.92,-3.59 0.96,-1.04 2.3,-1.28 3.27,-0.62 1.52,1.02 2.06,3.98 1.26,6.83l-0.35 1.28 -0.26 -0.57c-0.57,-1.37 -0.84,-2.57 -0.84,-3.72 0,-1.17 0,-1.19 -0.47,-1.41 -0.59,-0.32 -0.78,-0.15 -1.13,0.87 -0.19,0.6 -0.22,1.05 -0.16,2.12 0.09,1.35 0.63,3.86 1.11,5.21l0.24 0.69 -1.11 1.86c-0.62,1.02 -1.16,2 -1.23,2.15 -0.06,0.15 -0.14,0.26 -0.17,0.23 -0.03,-0.03 -0.33,-0.72 -0.68,-1.53 -1.68,-4.07 -2.12,-7.07 -1.43,-9.79l0 0zm2.4 33.5c0.14,-0.93 0.29,-1.8 0.35,-1.94 0.06,-0.18 0.77,0.72 2.54,3.2 1.35,1.89 2.48,3.54 2.52,3.65 0.2,0.51 -4.59,0.5 -5.18,-0.02 -0.11,-0.07 -0.44,-2.1 -0.45,-2.72 -0.02,-0.27 0.09,-1.26 0.22,-2.18l0 0zm1.04 -20.82c0.13,-0.11 0.65,-0.9 1.16,-1.76 0.51,-0.86 0.98,-1.53 1.04,-1.52 0.22,0.09 3.14,4.25 3.08,4.4 -0.14,0.35 -2.39,3.69 -2.45,3.63 -0.17,-0.18 -3.05,-4.4 -3.05,-4.47 0,-0.06 0.1,-0.18 0.23,-0.29l0 0zm1.32 28.34c1.58,0.08 2.9,-0.21 3.42,-0.74 0.17,-0.17 0.35,-0.29 0.38,-0.24 0.12,0.12 2.46,4.77 2.46,4.89 0,0.26 -1.37,0.51 -2.21,0.42 -1.77,-0.18 -3.9,-1.71 -4.97,-3.56 -0.26,-0.45 -0.48,-0.83 -0.48,-0.84 0,-0.01 0.63,0.02 1.4,0.06l0 0zm0.01 -16c0.36,-0.89 0.77,-1.97 0.92,-2.4 0.13,-0.45 0.31,-0.75 0.37,-0.68 0.06,0.06 1.31,1.85 2.76,3.96 2.9,4.22 4.38,6.83 4.22,7.46 -0.12,0.47 -1.02,1.89 -1.64,2.58 -0.26,0.28 -0.57,0.69 -0.71,0.9l-0.24 0.38 -0.84 -1.65c-0.47,-0.92 -1.88,-3.21 -3.17,-5.1 -1.28,-1.91 -2.33,-3.54 -2.33,-3.65 -0.01,-0.1 0.29,-0.92 0.65,-1.8l0 0zm4.05 -7.82l1.1 -2.15 0.86 1.56c2.3,4.22 3,6.02 3.39,8.75 0.13,1.02 0.04,3.98 -0.14,3.98 -0.04,0 -0.39,-0.59 -0.77,-1.31 -0.81,-1.58 -2.31,-3.95 -4.17,-6.57 -0.77,-1.08 -1.38,-2 -1.38,-2.04 0,-0.05 0.5,-1.05 1.11,-2.22l0 0zm3.39 20.92c0.42,-0.42 0.93,-1.01 1.16,-1.31 0.21,-0.32 0.45,-0.53 0.54,-0.47 0.09,0.05 0.12,0.74 0.06,1.83 -0.06,1.31 -0.17,2.04 -0.47,2.97 -0.23,0.69 -0.45,1.25 -0.51,1.25 -0.11,-0.01 -1.47,-3.08 -1.52,-3.38 0,-0.09 0.33,-0.5 0.74,-0.9z"/>
    <path d="M0.23 19.72c0.44,2.58 1.83,5.88 3.14,7.41 0.77,0.87 2.01,1.91 3,2.48 1.25,0.72 3.68,1.01 5.57,0.66 1.17,-0.21 2.01,-0.77 3.56,-2.37 2.55,-2.66 3.71,-6.06 3.51,-10.45 -0.08,-1.56 -0.15,-2 -0.6,-3.29 -0.63,-1.74 -1.32,-2.84 -2.55,-4.05 -1.02,-0.99 -2.09,-1.55 -3.47,-1.79 -3.11,-0.53 -5.72,1.95 -6.41,6.09 -0.24,1.4 -0.03,3.63 0.47,5.27 1.11,3.54 3.87,4.91 5.72,2.82 0.84,-0.96 1.1,-1.94 1.11,-4.16l0 -1.8 -0.62 -0.04 -0.62 -0.05 -0.09 1.49c-0.04,1.01 -0.17,1.71 -0.36,2.16 -0.33,0.72 -1.11,1.47 -1.55,1.47 -0.72,0 -1.86,-2.18 -2.12,-4.07 -0.17,-1.13 -0.15,-1.47 0.07,-2.7 0.59,-3 1.89,-4.52 3.92,-4.53 2.43,-0.03 4.34,3.03 4.53,7.26 0.14,2.81 -0.32,5 -1.5,7.23 -0.51,0.98 -1.97,2.63 -2.72,3.09 -0.78,0.5 -1.94,0.66 -3.14,0.45 -1.88,-0.3 -4.1,-2.12 -5.13,-4.19 -1.37,-2.75 -2.21,-7.1 -1.86,-9.8 0.2,-1.61 1.07,-4.52 1.73,-5.84 1.44,-2.85 4.08,-5.42 6.41,-6.23 2.19,-0.77 5.76,0.11 8.21,1.98 2.13,1.65 3.53,3.42 4.8,6.14 0.87,1.82 1.26,3.09 1.59,5.19 0.5,3.05 -0.03,8.09 -1.31,12.35 -0.29,0.96 -0.33,1.02 -0.56,0.8 -0.29,-0.26 -1.83,-0.69 -2.43,-0.69 -0.98,0.02 -2.49,0.47 -3.29,1.01 -1.16,0.75 -2.49,2.06 -3.2,3.09 -0.69,1.01 -1.47,2.63 -1.52,3.11 -0.01,0.23 -0.28,0.5 -0.78,0.81 -1.4,0.9 -3.15,3.14 -4.04,5.15 -1.41,3.18 -1.5,7.19 -0.26,11.05l0.48 1.46 -0.96 1.62c-1.56,2.61 -1.71,2.91 -2.33,4.47 -2.37,5.97 -3.05,10.6 -2.34,15.9 0.83,6.23 3.68,10.57 8.6,13.06 1.61,0.81 2.52,1.02 4.23,1.01 4.26,-0.02 7.82,-2.22 10.01,-6.21 1.1,-2 1.68,-4.49 1.68,-7.23 0,-4.26 -0.72,-7.11 -3.21,-12.68 -0.38,-0.86 -0.69,-1.65 -0.69,-1.79 0,-0.12 0.33,-0.66 0.74,-1.22 1.64,-2.21 2.63,-4.4 3.47,-7.69 0.39,-1.55 0.5,-2.25 0.56,-4.11 0.08,-2.1 0.04,-2.4 -0.39,-4.5 -0.44,-2.15 -0.45,-2.28 -0.24,-3.08 0.28,-1.07 0.28,-4.1 0,-6.11 -0.23,-1.59 -0.71,-3 -1.38,-4.02l-0.39 -0.59 0.26 -0.92c1.31,-4.71 1.53,-6.36 1.4,-10.51 -0.22,-6.95 -2.19,-12.23 -5.84,-15.6 -1.01,-0.93 -1.59,-1.32 -3.05,-2.04 -0.99,-0.5 -2.21,-1.01 -2.7,-1.13 -1.41,-0.38 -3.72,-0.47 -4.85,-0.17 -2.06,0.53 -4.46,1.97 -6.06,3.63 -1.26,1.34 -2.87,4.17 -3.69,6.59 -0.74,2.15 -1.01,6.62 -0.54,9.32l0 0zm4.77 48.81c0.77,-3.32 1.88,-6.12 3.6,-9.05 0.37,-0.62 0.75,-1.41 0.84,-1.76l0.17 -0.6 0.8 1.56c0.42,0.86 0.95,1.79 1.13,2.06l0.36 0.5 -0.72 1.44c-1.73,3.5 -2.21,5.39 -2.22,8.81 -0.02,1.86 0.03,2.48 0.3,3.56 1.05,4.16 3.62,6.87 6.48,6.87 1.1,0 2.4,-0.71 3.15,-1.68 0.74,-0.98 0.99,-1.67 1.23,-3.27 0.28,-1.98 -0.11,-4.41 -1.05,-6.5l-0.47 -1.02 0.92 -1.53c0.5,-0.84 1.16,-2.06 1.46,-2.69 0.3,-0.63 0.59,-1.16 0.63,-1.16 0.12,-0.01 1.91,4.35 2.49,6.05 0.99,2.9 1.2,6.66 0.5,9.32 -1.1,4.2 -3.23,6.69 -6.75,7.88 -2.79,0.95 -6.53,-0.15 -9.13,-2.69 -1.31,-1.28 -2.13,-2.61 -2.84,-4.55 -0.69,-1.86 -0.9,-2.73 -1.07,-4.47 -0.09,-0.87 -0.2,-1.82 -0.23,-2.1 -0.13,-1.13 0.08,-3.45 0.42,-4.98l-0 0zm3.69 -22.79c0.27,-2.27 0.87,-3.87 2.19,-5.87 0.36,-0.56 0.66,-1.08 0.66,-1.17 0,-0.09 0.05,-0.16 0.12,-0.16 0.06,0 0.14,0.69 0.15,1.55 0.06,1.85 0.36,4.17 0.72,5.45l0.26 0.9 -1.71 2.42c-0.95,1.34 -1.73,2.4 -1.76,2.37 -0.21,-0.19 -0.62,-2.33 -0.77,-3.98 0,-0.13 0.06,-0.81 0.14,-1.5l0 0zm3.9 7.31c0.84,-1.22 1.55,-2.21 1.58,-2.18 0.02,0.03 0.29,0.69 0.6,1.47 0.31,0.78 0.72,1.76 0.92,2.16l0.36 0.74 -0.87 1.14c-0.48,0.63 -1.17,1.58 -1.52,2.1 -0.57,0.84 -0.68,0.92 -0.87,0.72 -0.41,-0.41 -1.85,-3.33 -1.8,-3.63 0.03,-0.16 0.75,-1.31 1.61,-2.52l0 0zm-1.28 18.21c0.26,-1.86 0.45,-2.6 1.46,-5.15 0.68,-1.71 1.02,-2.28 1.02,-1.7 0,0.11 0.53,1.07 1.16,2.13l1.17 1.94 -0.41 1.2c-1.14,3.41 -1.32,6.5 -0.45,7.58 0.27,0.33 0.28,0.33 0.75,0.09 0.48,-0.24 0.48,-0.26 0.48,-1.46 0,-0.96 0.09,-1.5 0.48,-2.63 0.26,-0.78 0.53,-1.41 0.57,-1.41 0.19,0 0.65,1.89 0.72,3.02 0.23,3.69 -1.46,5.91 -3.81,5.01 -1.61,-0.62 -3.21,-3.78 -3.33,-6.6 -0.02,-0.26 0.07,-1.16 0.19,-2.03zm2.49 -32.68c0.1,-0.65 0.24,-1.25 0.32,-1.35 0.07,-0.09 0.62,-0.29 1.2,-0.42 0.95,-0.24 1.22,-0.24 2.55,-0.08 1.13,0.15 1.47,0.26 1.41,0.41 -0.04,0.1 -1.19,1.76 -2.52,3.65 -2.75,3.9 -2.51,3.78 -2.88,1.43 -0.27,-1.74 -0.27,-2.22 -0.07,-3.63l0 0zm2.4 21.69c0.77,-1.1 1.44,-2.06 1.49,-2.12 0.09,-0.11 2.3,3.06 2.49,3.57 0.06,0.15 -2.85,4.31 -3.08,4.4 -0.08,0.02 -0.54,-0.66 -1.05,-1.53 -0.51,-0.87 -1.04,-1.65 -1.16,-1.76 -0.12,-0.11 -0.19,-0.27 -0.15,-0.38 0.05,-0.1 0.69,-1.1 1.46,-2.19zm0.38 -28.11c1.56,-1.61 3.6,-2.34 5.24,-1.88 0.38,0.11 0.68,0.26 0.68,0.33 0,0.19 -2.18,4.47 -2.46,4.85 -0.21,0.27 -0.23,0.29 -0.24,0.03 0,-0.18 -0.25,-0.39 -0.72,-0.6 -0.6,-0.29 -0.98,-0.33 -2.45,-0.33l-1.74 0 0.39 -0.74c0.21,-0.39 0.8,-1.14 1.31,-1.67l0 -0zm1.53 12.65c1.38,-2.09 2.78,-4.38 3.11,-5.1 0.33,-0.72 0.65,-1.29 0.69,-1.28 0.33,0.11 2.48,3.17 2.61,3.74 0.17,0.63 -1.35,3.3 -4.26,7.52 -1.49,2.13 -2.72,3.9 -2.76,3.95 -0.04,0.05 -0.21,-0.34 -0.39,-0.87 -0.18,-0.53 -0.59,-1.59 -0.92,-2.37 -0.33,-0.78 -0.6,-1.52 -0.6,-1.61 0,-0.11 1.13,-1.89 2.52,-3.98l0 -0zm1.94 10c1.79,-2.48 3.9,-5.75 4.62,-7.14 0.41,-0.81 0.8,-1.47 0.84,-1.47 0.18,0 0.27,2.96 0.14,3.98 -0.39,2.73 -1.13,4.59 -3.48,8.92l-0.77 1.4 -1.08 -2.07c-0.6,-1.16 -1.11,-2.16 -1.11,-2.25 -0.02,-0.09 0.37,-0.71 0.84,-1.35l0 0zm3.65 -20.05c0.38,-0.89 0.72,-1.62 0.78,-1.62 0.06,0 0.28,0.56 0.51,1.23 0.3,0.96 0.41,1.67 0.48,3.08 0.05,1.19 0.02,1.85 -0.07,1.85 -0.09,0 -0.33,-0.25 -0.54,-0.57 -0.22,-0.3 -0.74,-0.89 -1.16,-1.31 -0.42,-0.41 -0.74,-0.81 -0.72,-0.9 0.03,-0.07 0.35,-0.87 0.72,-1.76l0 0z"/>
   </g>
  </g>
 </g>
</svg>
